<?xml version="1.0" encoding="UTF-8"?>
<!DOCTYPE svg PUBLIC "-//W3C//DTD SVG 1.1//EN" "http://www.w3.org/Graphics/SVG/1.1/DTD/svg11.dtd">
<svg xmlns="http://www.w3.org/2000/svg" version="1.1" width="512px" height="512px" style="shape-rendering:geometricPrecision; text-rendering:geometricPrecision; image-rendering:optimizeQuality; fill-rule:evenodd; clip-rule:evenodd" xmlns:xlink="http://www.w3.org/1999/xlink">
<g><path style="opacity:0.024" fill="#43443f" d="M 15.5,0.5 C 17.1992,0.339822 18.8659,0.506489 20.5,1C 14.6667,8.16667 8.16667,14.6667 1,20.5C 0.143313,17.4495 0.809979,14.7828 3,12.5C 7.06209,8.26879 11.2288,4.26879 15.5,0.5 Z"/></g>
<g><path style="opacity:0.034" fill="#43443f" d="M 35.5,0.5 C 37.1992,0.339822 38.8659,0.506489 40.5,1C 28,14.8333 14.8333,28 1,40.5C 0.143313,37.4495 0.809979,34.7828 3,32.5C 13.7284,21.604 24.5617,10.9373 35.5,0.5 Z"/></g>
<g><path style="opacity:0.037" fill="#43443f" d="M 55.5,0.5 C 57.1992,0.339822 58.8659,0.506489 60.5,1C 41.3333,21.5 21.5,41.3333 1,60.5C 0.143313,57.4495 0.809979,54.7828 3,52.5C 20.395,34.9377 37.895,17.6044 55.5,0.5 Z"/></g>
<g><path style="opacity:0.039" fill="#43443f" d="M 75.5,0.5 C 77.1992,0.339822 78.8659,0.506489 80.5,1C 54.6667,28.1667 28.1667,54.6667 1,80.5C 0.143313,77.4495 0.809979,74.7828 3,72.5C 27.0616,48.2713 51.2283,24.2713 75.5,0.5 Z"/></g>
<g><path style="opacity:0.04" fill="#43443f" d="M 95.5,0.5 C 97.1992,0.339822 98.8659,0.506489 100.5,1C 68,34.8333 34.8333,68 1,100.5C 0.143313,97.4495 0.809979,94.7828 3,92.5C 33.7283,61.6047 64.5616,30.938 95.5,0.5 Z"/></g>
<g><path style="opacity:0.04" fill="#43443f" d="M 115.5,0.5 C 117.199,0.339822 118.866,0.506489 120.5,1C 81.3333,41.5 41.5,81.3333 1,120.5C 0.143313,117.449 0.809979,114.783 3,112.5C 40.3949,74.9381 77.8949,37.6048 115.5,0.5 Z"/></g>
<g><path style="opacity:0.041" fill="#43443f" d="M 135.5,0.5 C 137.199,0.339822 138.866,0.506489 140.5,1C 94.6667,48.1667 48.1667,94.6667 1,140.5C 0.143313,137.449 0.809979,134.783 3,132.5C 47.0616,88.2715 91.2283,44.2715 135.5,0.5 Z"/></g>
<g><path style="opacity:0.041" fill="#43443f" d="M 155.5,0.5 C 157.199,0.339822 158.866,0.506489 160.5,1C 108,54.8333 54.8333,108 1,160.5C 0.143313,157.449 0.809979,154.783 3,152.5C 53.7283,101.605 104.562,50.9382 155.5,0.5 Z"/></g>
<g><path style="opacity:0.041" fill="#43443f" d="M 175.5,0.5 C 177.199,0.339822 178.866,0.506489 180.5,1C 121.333,61.5 61.5,121.333 1,180.5C 0.143313,177.449 0.809979,174.783 3,172.5C 60.3949,114.938 117.895,57.6049 175.5,0.5 Z"/></g>
<g><path style="opacity:0.041" fill="#43443f" d="M 74.5,128.5 C 72.5,128.5 71.5,129.5 71.5,131.5C 48.1732,154.66 24.6732,177.66 1,200.5C 0.143313,197.449 0.809979,194.783 3,192.5C 66.1667,129.333 129.333,66.1667 192.5,3C 194.783,0.809979 197.449,0.143313 200.5,1C 158.66,43.6736 116.66,86.1736 74.5,128.5 Z"/></g>
<g><path style="opacity:0.042" fill="#43433f" d="M 88.5,134.5 C 86.1815,134.008 84.1815,133.008 82.5,131.5C 126.25,89.2512 169.583,46.4178 212.5,3C 214.783,0.809979 217.449,0.143313 220.5,1C 176.66,45.6736 132.66,90.1736 88.5,134.5 Z"/></g>
<g><path style="opacity:0.042" fill="#43443f" d="M 101.5,141.5 C 99.6316,140.737 97.9649,139.737 96.5,138.5C 142.66,92.5071 188.993,46.6737 235.5,1C 237.167,0.333333 238.833,0.333333 240.5,1C 194.326,48.007 147.993,94.8403 101.5,141.5 Z"/></g>
<g><path style="opacity:0.042" fill="#43443f" d="M 114.5,147.5 C 112.847,147.34 111.514,146.674 110.5,145.5C 158.326,96.8404 206.66,48.6737 255.5,1C 257.167,0.333333 258.833,0.333333 260.5,1C 212.326,50.3404 163.66,99.1737 114.5,147.5 Z"/></g>
<g><path style="opacity:0.042" fill="#43433f" d="M 128.5,155.5 C 126.668,154.752 125.001,153.752 123.5,152.5C 173.66,101.507 224.326,51.0071 275.5,1C 277.167,0.333333 278.833,0.333333 280.5,1C 230.361,52.1392 179.861,102.972 129,153.5C 128.536,154.094 128.369,154.761 128.5,155.5 Z"/></g>
<g><path style="opacity:0.042" fill="#444440" d="M 141.5,161.5 C 139.181,161.008 137.181,160.008 135.5,158.5C 188.25,107.251 240.583,55.4175 292.5,3C 294.783,0.809979 297.449,0.143313 300.5,1C 247.66,54.6737 194.66,108.174 141.5,161.5 Z"/></g>
<g><path style="opacity:0.041" fill="#43443f" d="M 246.5,76.5 C 244.167,76.5 241.833,76.5 239.5,76.5C 263.632,51.868 287.965,27.368 312.5,3C 314.783,0.809979 317.449,0.143313 320.5,1C 295.993,26.3399 271.327,51.5066 246.5,76.5 Z"/></g>
<g><path style="opacity:0.041" fill="#43443f" d="M 266.5,76.5 C 264.167,76.5 261.833,76.5 259.5,76.5C 283.632,51.868 307.965,27.368 332.5,3C 334.783,0.809979 337.449,0.143313 340.5,1C 315.993,26.3399 291.327,51.5066 266.5,76.5 Z"/></g>
<g><path style="opacity:0.041" fill="#43443f" d="M 281.5,81.5 C 280.263,80.0351 279.263,78.3684 278.5,76.5C 303.993,51.1734 329.66,26.0067 355.5,1C 357.167,0.333333 358.833,0.333333 360.5,1C 334.327,28.0066 307.993,54.8399 281.5,81.5 Z"/></g>
<g><path style="opacity:0.041" fill="#43443f" d="M 287.5,94.5 C 286.069,93.2196 285.402,91.5529 285.5,89.5C 315.327,59.8402 345.327,30.3402 375.5,1C 377.167,0.333333 378.833,0.333333 380.5,1C 349.993,32.6734 318.993,63.8401 287.5,94.5 Z"/></g>
<g><path style="opacity:0.042" fill="#43443f" d="M 293.5,108.5 C 292.559,106.95 291.893,105.284 291.5,103.5C 325.993,69.1736 360.66,35.0069 395.5,1C 397.167,0.333333 398.833,0.333333 400.5,1C 365.326,37.3402 329.66,73.1735 293.5,108.5 Z"/></g>
<g><path style="opacity:0.042" fill="#43433f" d="M 301.5,121.5 C 299.716,121.107 298.05,120.441 296.5,119.5C 335.66,79.507 375.326,40.007 415.5,1C 417.167,0.333333 418.833,0.333333 420.5,1C 380.993,41.3402 341.326,81.5069 301.5,121.5 Z"/></g>
<g><path style="opacity:0.042" fill="#43433f" d="M 314.5,127.5 C 312.847,127.34 311.514,126.674 310.5,125.5C 351.66,83.507 393.326,42.007 435.5,1C 437.167,0.333333 438.833,0.333333 440.5,1C 398.993,43.6736 356.993,85.8403 314.5,127.5 Z"/></g>
<g><path style="opacity:0.042" fill="#43433f" d="M 326.5,136.5 C 324.77,135.974 323.436,134.974 322.5,133.5C 366.326,88.8403 410.66,44.6737 455.5,1C 457.167,0.333333 458.833,0.333333 460.5,1C 415.993,46.3403 371.326,91.507 326.5,136.5 Z"/></g>
<g><path style="opacity:0.042" fill="#444440" d="M 336.5,145.5 C 334.596,145.262 333.262,144.262 332.5,142.5C 379.993,95.1737 427.66,48.0071 475.5,1C 477.167,0.333333 478.833,0.333333 480.5,1C 432.993,49.6737 384.993,97.8404 336.5,145.5 Z"/></g>
<g><path style="opacity:0.042" fill="#43433f" d="M 345.5,157.5 C 344.026,156.564 343.026,155.23 342.5,153.5C 392.993,102.174 443.993,51.3404 495.5,1C 497.167,0.333333 498.833,0.333333 500.5,1C 448.993,53.3404 397.326,105.507 345.5,157.5 Z"/></g>
<g><path style="opacity:0.042" fill="#43433f" d="M 511.5,5.5 C 511.5,7.16667 511.5,8.83333 511.5,10.5C 458.86,63.473 406.194,116.473 353.5,169.5C 351.75,168.341 350.75,166.674 350.5,164.5C 403.299,112.201 455.965,59.7014 508.5,7C 509.527,6.48672 510.527,5.98672 511.5,5.5 Z"/></g>
<g><path style="opacity:0.042" fill="#43433f" d="M 511.5,25.5 C 511.5,27.1667 511.5,28.8333 511.5,30.5C 472.527,69.8064 433.527,109.14 394.5,148.5C 393.833,148.5 393.5,148.833 393.5,149.5C 389.086,152.374 384.419,154.707 379.5,156.5C 422.862,112.138 466.862,68.4716 511.5,25.5 Z"/></g>
<g><path style="opacity:0.041" fill="#43433f" d="M 511.5,45.5 C 511.5,47.1667 511.5,48.8333 511.5,50.5C 485.861,76.4731 460.194,102.473 434.5,128.5C 430.117,131.358 425.45,133.692 420.5,135.5C 450.195,104.804 480.529,74.8043 511.5,45.5 Z"/></g>
<g><path style="opacity:0.042" fill="#43433f" d="M 511.5,65.5 C 511.5,67.1667 511.5,68.8333 511.5,70.5C 468.895,113.605 426.062,156.605 383,199.5C 382.536,200.094 382.369,200.761 382.5,201.5C 380.992,199.819 379.992,197.819 379.5,195.5C 422.632,152.868 465.632,110.035 508.5,67C 509.527,66.4867 510.527,65.9867 511.5,65.5 Z"/></g>
<g><path style="opacity:0.907" fill="#30302f" d="M 239.5,76.5 C 241.833,76.5 244.167,76.5 246.5,76.5C 250.833,76.5 255.167,76.5 259.5,76.5C 261.833,76.5 264.167,76.5 266.5,76.5C 270.5,76.5 274.5,76.5 278.5,76.5C 279.263,78.3684 280.263,80.0351 281.5,81.5C 282.326,84.4848 283.659,87.1515 285.5,89.5C 285.402,91.5529 286.069,93.2196 287.5,94.5C 288.597,97.6865 289.93,100.686 291.5,103.5C 291.893,105.284 292.559,106.95 293.5,108.5C 293.335,111.85 293.502,115.183 294,118.5C 294.671,119.252 295.504,119.586 296.5,119.5C 298.05,120.441 299.716,121.107 301.5,121.5C 304.618,122.559 307.618,123.892 310.5,125.5C 311.514,126.674 312.847,127.34 314.5,127.5C 317.128,129.488 319.795,131.488 322.5,133.5C 323.436,134.974 324.77,135.974 326.5,136.5C 328.5,138.5 330.5,140.5 332.5,142.5C 333.262,144.262 334.596,145.262 336.5,145.5C 338.122,148.455 340.122,151.122 342.5,153.5C 343.026,155.23 344.026,156.564 345.5,157.5C 346.934,160.047 348.6,162.381 350.5,164.5C 350.75,166.674 351.75,168.341 353.5,169.5C 362.14,165.18 370.807,160.847 379.5,156.5C 384.419,154.707 389.086,152.374 393.5,149.5C 394.167,149.5 394.5,149.167 394.5,148.5C 403.45,144.692 412.117,140.358 420.5,135.5C 425.45,133.692 430.117,131.358 434.5,128.5C 439.747,128.64 440.747,130.806 437.5,135C 421.441,146.692 405.775,158.859 390.5,171.5C 384.16,175.677 378.16,180.344 372.5,185.5C 372.855,186.522 373.522,187.189 374.5,187.5C 375.669,190.511 377.336,193.178 379.5,195.5C 379.992,197.819 380.992,199.819 382.5,201.5C 383.499,204.162 384.499,206.828 385.5,209.5C 385.796,211.403 386.463,213.07 387.5,214.5C 387.984,218.232 388.651,221.899 389.5,225.5C 389.5,227.833 389.5,230.167 389.5,232.5C 389.395,236.548 389.728,240.548 390.5,244.5C 390.5,246.833 390.5,249.167 390.5,251.5C 390.646,255.519 390.979,259.519 391.5,263.5C 391.5,265.833 391.5,268.167 391.5,270.5C 392.021,274.481 392.354,278.481 392.5,282.5C 392.5,284.833 392.5,287.167 392.5,289.5C 393.272,293.452 393.605,297.452 393.5,301.5C 393.5,303.833 393.5,306.167 393.5,308.5C 393.982,309.416 394.315,310.416 394.5,311.5C 393.574,315.13 392.907,318.797 392.5,322.5C 391.833,322.5 391.5,322.833 391.5,323.5C 390.422,326.402 389.756,329.402 389.5,332.5C 386.835,339.495 384.168,346.495 381.5,353.5C 380.833,353.5 380.5,353.833 380.5,354.5C 378.225,358.615 375.725,362.615 373,366.5C 370.408,368.31 367.574,369.644 364.5,370.5C 363.833,370.5 363.5,370.833 363.5,371.5C 362.127,371.343 360.793,371.51 359.5,372C 353.833,380.333 346.833,387.333 338.5,393C 334.351,394.863 330.018,396.03 325.5,396.5C 322.873,397.092 320.206,397.425 317.5,397.5C 316.778,397.082 316.278,396.416 316,395.5C 315.503,392.854 315.336,390.187 315.5,387.5C 315.662,385.473 315.495,383.473 315,381.5C 306.525,394.479 295.691,404.813 282.5,412.5C 281.833,412.5 281.5,412.833 281.5,413.5C 280.833,413.5 280.5,413.833 280.5,414.5C 278.774,418.009 277.441,421.675 276.5,425.5C 275.109,430.225 272.109,433.225 267.5,434.5C 265.167,434.5 262.833,434.5 260.5,434.5C 256.167,434.5 251.833,434.5 247.5,434.5C 245.167,434.5 242.833,434.5 240.5,434.5C 238.478,432.469 236.811,430.135 235.5,427.5C 234.833,425.833 234.167,424.167 233.5,422.5C 232.538,419.261 231.205,416.261 229.5,413.5C 228.101,412.11 226.434,411.11 224.5,410.5C 222.381,408.6 220.047,406.934 217.5,405.5C 216.564,404.026 215.23,403.026 213.5,402.5C 211.5,399.833 209.167,397.5 206.5,395.5C 205.833,394.167 204.833,393.167 203.5,392.5C 197.474,382.038 194.474,383.372 194.5,396.5C 191.527,397.509 188.527,397.509 185.5,396.5C 183.565,395.85 181.565,395.517 179.5,395.5C 176.127,394.934 173.127,393.601 170.5,391.5C 169.205,390.512 167.872,389.512 166.5,388.5C 164.192,386.529 161.858,384.529 159.5,382.5C 159.262,380.596 158.262,379.262 156.5,378.5C 154.785,376.118 152.785,374.118 150.5,372.5C 148.75,371.13 146.75,370.13 144.5,369.5C 141.386,369.445 139.052,368.112 137.5,365.5C 136.5,364.167 135.5,362.833 134.5,361.5C 132.819,358.797 131.153,356.131 129.5,353.5C 129.598,351.447 128.931,349.78 127.5,348.5C 126.342,345.011 125.009,341.678 123.5,338.5C 123.371,336.784 123.038,335.117 122.5,333.5C 121.101,330.301 120.101,326.968 119.5,323.5C 119.204,321.597 118.537,319.93 117.5,318.5C 116.35,314.141 116.35,309.808 117.5,305.5C 117.5,303.167 117.5,300.833 117.5,298.5C 117.669,293.819 118.002,289.152 118.5,284.5C 118.5,282.167 118.5,279.833 118.5,277.5C 119.314,272.881 119.647,268.214 119.5,263.5C 119.833,260.833 120.167,258.167 120.5,255.5C 120.5,251.167 120.5,246.833 120.5,242.5C 121.265,239.904 121.599,237.237 121.5,234.5C 121.437,229.797 121.771,225.13 122.5,220.5C 123.323,217.539 123.99,214.539 124.5,211.5C 127.599,201.968 132.266,193.301 138.5,185.5C 138.376,184.893 138.043,184.56 137.5,184.5C 136.564,183.026 135.23,182.026 133.5,181.5C 131.45,179.453 129.117,177.786 126.5,176.5C 125.5,174.833 124.167,173.5 122.5,172.5C 119.991,171.079 117.657,169.412 115.5,167.5C 114.738,165.738 113.404,164.738 111.5,164.5C 109.14,162.147 106.473,160.147 103.5,158.5C 102.738,156.738 101.404,155.738 99.5,155.5C 97.3932,153.273 95.0599,151.273 92.5,149.5C 91.205,148.512 89.8717,147.512 88.5,146.5C 86.4687,144.478 84.1354,142.811 81.5,141.5C 80.7377,139.738 79.4044,138.738 77.5,138.5C 74.974,136.582 72.974,134.249 71.5,131.5C 71.5,129.5 72.5,128.5 74.5,128.5C 77.3798,128.94 80.0465,129.94 82.5,131.5C 84.1815,133.008 86.1815,134.008 88.5,134.5C 91.1932,135.847 93.8599,137.18 96.5,138.5C 97.9649,139.737 99.6316,140.737 101.5,141.5C 104.378,143.105 107.378,144.439 110.5,145.5C 111.514,146.674 112.847,147.34 114.5,147.5C 117.304,149.405 120.304,151.071 123.5,152.5C 125.001,153.752 126.668,154.752 128.5,155.5C 130.954,156.227 133.287,157.227 135.5,158.5C 137.181,160.008 139.181,161.008 141.5,161.5C 143.938,163.267 146.605,164.601 149.5,165.5C 150.965,166.737 152.632,167.737 154.5,168.5C 155.858,169.626 157.192,169.626 158.5,168.5C 160.445,165.607 162.111,162.607 163.5,159.5C 164.167,159.5 164.5,159.167 164.5,158.5C 165.167,158.5 165.5,158.167 165.5,157.5C 172.956,146.887 181.956,137.887 192.5,130.5C 193.167,130.5 193.5,130.167 193.5,129.5C 194.167,129.5 194.5,129.167 194.5,128.5C 201.432,124.537 208.765,121.371 216.5,119C 217.053,113.746 218.053,108.579 219.5,103.5C 221.878,99.3758 223.878,95.0424 225.5,90.5C 227.653,86.1932 229.82,81.8599 232,77.5C 234.381,76.565 236.881,76.2317 239.5,76.5 Z M 252.5,82.5 C 247.5,87.8333 242.5,93.1667 237.5,98.5C 234.552,98.6759 231.886,98.6759 229.5,98.5C 231.201,92.2607 234.534,87.0941 239.5,83C 243.821,82.501 248.154,82.3343 252.5,82.5 Z M 259.5,82.5 C 263.833,82.5 268.167,82.5 272.5,82.5C 267.5,87.8333 262.5,93.1667 257.5,98.5C 253.167,98.5 248.833,98.5 244.5,98.5C 249.5,93.1667 254.5,87.8333 259.5,82.5 Z M 276.5,86.5 C 278.254,89.6517 279.087,92.985 279,96.5C 278.5,97 278,97.5 277.5,98C 273.179,98.499 268.846,98.6657 264.5,98.5C 268.167,94.1667 272.167,90.1667 276.5,86.5 Z M 236.5,105.5 C 240.833,105.5 245.167,105.5 249.5,105.5C 240.833,114.833 231.833,123.833 222.5,132.5C 223.229,127.87 223.563,123.203 223.5,118.5C 228.167,114.5 232.5,110.167 236.5,105.5 Z M 256.5,105.5 C 260.833,105.5 265.167,105.5 269.5,105.5C 263.167,112.167 256.833,118.833 250.5,125.5C 246.167,125.5 241.833,125.5 237.5,125.5C 243.833,118.833 250.167,112.167 256.5,105.5 Z M 276.5,105.5 C 279.948,106.39 282.948,108.057 285.5,110.5C 280.167,115.167 275.167,120.167 270.5,125.5C 266.167,125.5 261.833,125.5 257.5,125.5C 263.833,118.833 270.167,112.167 276.5,105.5 Z M 287.5,115.5 C 287.5,119.833 287.5,124.167 287.5,128.5C 285.5,130.167 283.5,131.833 281.5,133.5C 279.588,131.343 277.921,129.009 276.5,126.5C 279.833,122.5 283.5,118.833 287.5,115.5 Z M 215.5,126.5 C 216.485,130.634 216.818,134.968 216.5,139.5C 204.5,151.167 192.5,162.833 180.5,174.5C 183.652,168.168 187.819,162.501 193,157.5C 193.741,154.981 192.908,153.315 190.5,152.5C 191.5,150.833 192.833,149.5 194.5,148.5C 195.191,150.022 196.358,151.022 198,151.5C 201.431,149.739 204.597,147.572 207.5,145C 210.493,141.164 209.493,138.997 204.5,138.5C 208.167,134.5 211.833,130.5 215.5,126.5 Z M 304.5,130.5 C 301.5,133.833 298.5,137.167 295.5,140.5C 294.353,136.354 294.186,132.02 295,127.5C 298.542,126.956 301.708,127.956 304.5,130.5 Z M 243.5,131.5 C 241.167,134.5 238.5,137.167 235.5,139.5C 235.868,134.465 238.535,131.798 243.5,131.5 Z M 250.5,131.5 C 254.833,131.5 259.167,131.5 263.5,131.5C 254.5,141.167 245.167,150.5 235.5,159.5C 235.5,155.167 235.5,150.833 235.5,146.5C 240.833,141.833 245.833,136.833 250.5,131.5 Z M 270.5,131.5 C 273.978,133.453 275.645,136.453 275.5,140.5C 262.167,153.167 249.167,166.167 236.5,179.5C 235.883,179.389 235.383,179.056 235,178.5C 234.501,174.848 234.335,171.182 234.5,167.5C 246.833,155.833 258.833,143.833 270.5,131.5 Z M 202.5,132.5 C 191.167,144.5 179.5,156.167 167.5,167.5C 176.167,152.833 187.833,141.167 202.5,132.5 Z M 229.5,133.5 C 229.5,137.833 229.5,142.167 229.5,146.5C 226.833,148.833 224.167,151.167 221.5,153.5C 221.998,148.848 222.331,144.181 222.5,139.5C 224.833,137.5 227.167,135.5 229.5,133.5 Z M 310.5,133.5 C 313.135,134.811 315.469,136.478 317.5,138.5C 310.167,145.167 303.167,152.167 296.5,159.5C 295.515,155.366 295.182,151.032 295.5,146.5C 300.224,141.771 305.224,137.437 310.5,133.5 Z M 288.5,134.5 C 288.5,138.833 288.5,143.167 288.5,147.5C 286.427,149.58 284.093,151.246 281.5,152.5C 281.5,148.5 281.5,144.5 281.5,140.5C 283.833,138.5 286.167,136.5 288.5,134.5 Z M 321.5,141.5 C 323.833,143.167 325.833,145.167 327.5,147.5C 315.5,160.167 303.167,172.5 290.5,184.5C 292.029,179.75 293.863,175.084 296,170.5C 296.494,168.866 296.66,167.199 296.5,165.5C 304.833,157.5 313.167,149.5 321.5,141.5 Z M 215.5,147.5 C 215.717,152.23 215.383,156.897 214.5,161.5C 206.167,169.5 197.833,177.5 189.5,185.5C 186.515,184.674 183.849,183.341 181.5,181.5C 192.5,169.833 203.833,158.5 215.5,147.5 Z M 275.5,147.5 C 275.5,151.833 275.5,156.167 275.5,160.5C 267.035,168.464 258.702,176.631 250.5,185C 248.527,185.495 246.527,185.662 244.5,185.5C 242.596,185.262 241.262,184.262 240.5,182.5C 251.833,170.5 263.5,158.833 275.5,147.5 Z M 331.5,151.5 C 333.727,153.607 335.727,155.94 337.5,158.5C 324.167,171.167 311.167,184.167 298.5,197.5C 293.686,200.409 288.686,203.075 283.5,205.5C 282.295,204.423 281.628,203.09 281.5,201.5C 297.833,184.5 314.5,167.833 331.5,151.5 Z M 117.5,157.5 C 117.167,158.167 116.833,158.833 116.5,159.5C 107.034,152.738 107.368,152.072 117.5,157.5 Z M 289.5,153.5 C 289.5,157.5 289.5,161.5 289.5,165.5C 287.5,168.167 285.167,170.5 282.5,172.5C 282.5,168.167 282.5,163.833 282.5,159.5C 284.833,157.5 287.167,155.5 289.5,153.5 Z M 401.5,153.5 C 384.124,167.542 366.458,181.209 348.5,194.5C 357.5,185.167 366.5,175.833 375.5,166.5C 383.883,161.642 392.55,157.308 401.5,153.5 Z M 228.5,154.5 C 228.5,158.833 228.5,163.167 228.5,167.5C 226.5,168.833 224.833,170.5 223.5,172.5C 222.609,170.709 221.609,168.876 220.5,167C 221.423,164.959 221.756,162.792 221.5,160.5C 223.833,158.5 226.167,156.5 228.5,154.5 Z M 122.5,159.5 C 125.696,160.929 128.696,162.595 131.5,164.5C 130.167,165.5 128.833,166.5 127.5,167.5C 124.865,166.189 122.531,164.522 120.5,162.5C 121.167,161.5 121.833,160.5 122.5,159.5 Z M 163.5,159.5 C 162.111,162.607 160.445,165.607 158.5,168.5C 157.192,169.626 155.858,169.626 154.5,168.5C 157.167,165.167 160.167,162.167 163.5,159.5 Z M 340.5,162.5 C 342.653,164.794 344.32,167.46 345.5,170.5C 343.167,172.167 341.167,174.167 339.5,176.5C 331.117,181.358 322.45,185.692 313.5,189.5C 322.167,180.167 331.167,171.167 340.5,162.5 Z M 135.5,166.5 C 138.622,167.561 141.622,168.895 144.5,170.5C 142.833,172.833 140.833,174.833 138.5,176.5C 135.94,174.727 133.607,172.727 131.5,170.5C 133.167,169.5 134.5,168.167 135.5,166.5 Z M 276.5,166.5 C 276.666,170.514 276.499,174.514 276,178.5C 272.937,181.076 269.771,183.409 266.5,185.5C 263.482,185.665 260.482,185.498 257.5,185C 263.702,178.631 270.035,172.464 276.5,166.5 Z M 175.5,167.5 C 174.071,170.308 173.405,173.308 173.5,176.5C 175.167,176.5 176.833,176.5 178.5,176.5C 177.833,177.5 177.167,178.5 176.5,179.5C 173.304,178.071 170.304,176.405 167.5,174.5C 170.167,172.167 172.833,169.833 175.5,167.5 Z M 214.5,168.5 C 215.787,171.406 216.787,174.406 217.5,177.5C 212.833,182.833 207.833,187.833 202.5,192.5C 199.55,191.692 196.883,190.358 194.5,188.5C 200.833,181.5 207.5,174.833 214.5,168.5 Z M 148.5,173.5 C 151.622,174.561 154.622,175.895 157.5,177.5C 155.167,180.167 152.833,182.833 150.5,185.5C 147.527,183.853 144.86,181.853 142.5,179.5C 144.833,177.833 146.833,175.833 148.5,173.5 Z M 361.5,173.5 C 345.833,189.5 330.167,205.5 314.5,221.5C 305.788,228.612 296.955,235.612 288,242.5C 286.628,241.09 285.795,239.423 285.5,237.5C 301.833,220.833 318.167,204.167 334.5,187.5C 343.37,182.565 352.37,177.899 361.5,173.5 Z M 228.5,174.5 C 226.934,178.243 227.601,181.576 230.5,184.5C 229.833,185.833 229.167,185.833 228.5,184.5C 227.212,182.261 226.212,179.928 225.5,177.5C 226.167,176.167 227.167,175.167 228.5,174.5 Z M 285.5,177.5 C 282.56,185.275 277.227,190.442 269.5,193C 273.667,189.5 277.833,186 282,182.5C 282.791,181.255 283.291,179.922 283.5,178.5C 284.167,178.167 284.833,177.833 285.5,177.5 Z M 163.5,180.5 C 166.032,181.596 168.365,182.929 170.5,184.5C 167.5,187.833 164.5,191.167 161.5,194.5C 159.142,192.471 156.808,190.471 154.5,188.5C 156.9,185.097 159.9,182.43 163.5,180.5 Z M 220.5,182.5 C 221.308,185.45 222.642,188.117 224.5,190.5C 221.833,193.5 219.167,196.5 216.5,199.5C 213.378,198.439 210.378,197.105 207.5,195.5C 211.5,190.833 215.833,186.5 220.5,182.5 Z M 175.5,186.5 C 178.696,187.929 181.696,189.595 184.5,191.5C 180.5,195.167 176.5,198.833 172.5,202.5C 169.888,201.221 167.555,199.555 165.5,197.5C 168.833,193.833 172.167,190.167 175.5,186.5 Z M 234.5,187.5 C 237.286,189.113 239.953,190.946 242.5,193C 240.212,193.418 238.212,192.751 236.5,191C 235.177,190.184 234.511,189.017 234.5,187.5 Z M 144.5,190.5 C 144.167,191.5 143.5,192.167 142.5,192.5C 142.369,191.761 142.536,191.094 143,190.5C 143.69,189.262 144.19,189.262 144.5,190.5 Z M 188.5,193.5 C 191.992,194.41 194.992,196.076 197.5,198.5C 192.833,202.833 188.167,207.167 183.5,211.5C 180.94,209.727 178.607,207.727 176.5,205.5C 180.833,201.833 184.833,197.833 188.5,193.5 Z M 228.5,193.5 C 231.286,195.113 233.953,196.946 236.5,199C 234.444,199.311 232.444,199.811 230.5,200.5C 229.684,202.287 228.684,203.954 227.5,205.5C 224.941,204.392 222.608,203.059 220.5,201.5C 223.5,199.167 226.167,196.5 228.5,193.5 Z M 369.5,193.5 C 371.664,195.822 373.331,198.489 374.5,201.5C 370.833,204.833 367.167,208.167 363.5,211.5C 363.693,207.434 363.36,203.434 362.5,199.5C 364.833,197.5 367.167,195.5 369.5,193.5 Z M 148.5,194.5 C 148.002,199.152 147.669,203.819 147.5,208.5C 141.167,214.5 134.833,220.5 128.5,226.5C 128.737,220.555 130.07,214.888 132.5,209.5C 137.833,204.5 143.167,199.5 148.5,194.5 Z M 320.5,194.5 C 308.167,207.5 295.5,220.167 282.5,232.5C 281.778,232.082 281.278,231.416 281,230.5C 280.502,227.518 280.335,224.518 280.5,221.5C 285.5,217.167 290.167,212.5 294.5,207.5C 303.193,203.153 311.86,198.82 320.5,194.5 Z M 156.5,199.5 C 155.833,199.833 155.167,200.167 154.5,200.5C 154.345,197.147 155.012,196.814 156.5,199.5 Z M 356.5,199.5 C 353.833,201.5 351.5,203.833 349.5,206.5C 348.711,206.217 348.044,205.717 347.5,205C 350.427,202.618 353.261,200.118 356,197.5C 356.464,198.094 356.631,198.761 356.5,199.5 Z M 201.5,200.5 C 204.622,201.561 207.622,202.895 210.5,204.5C 205.5,209.833 200.5,215.167 195.5,220.5C 192.568,219.2 190.234,217.2 188.5,214.5C 192.833,209.833 197.167,205.167 201.5,200.5 Z M 160.5,202.5 C 161.478,202.811 162.145,203.478 162.5,204.5C 160.144,207.022 157.977,209.688 156,212.5C 155.047,215.432 154.547,218.432 154.5,221.5C 154.167,221.5 153.833,221.5 153.5,221.5C 153.5,217.167 153.5,212.833 153.5,208.5C 155.833,206.5 158.167,204.5 160.5,202.5 Z M 376.5,205.5 C 378.4,208.518 379.733,211.851 380.5,215.5C 374.833,220.833 369.167,226.167 363.5,231.5C 364.383,226.897 364.717,222.23 364.5,217.5C 368.833,213.833 372.833,209.833 376.5,205.5 Z M 248.5,206.5 C 244.833,210.833 240.833,214.833 236.5,218.5C 236.822,214.664 235.989,211.331 234,208.5C 234.5,208 235,207.5 235.5,207C 239.821,206.501 244.154,206.334 248.5,206.5 Z M 255.5,206.5 C 259.833,206.5 264.167,206.5 268.5,206.5C 257.5,217.833 246.5,229.167 235.5,240.5C 234.522,240.189 233.855,239.522 233.5,238.5C 236.038,234.538 237.038,230.204 236.5,225.5C 243.167,219.5 249.5,213.167 255.5,206.5 Z M 275.5,206.5 C 278.301,208.617 278.135,210.617 275,212.5C 274.502,215.482 274.335,218.482 274.5,221.5C 264.5,231.167 254.5,240.833 244.5,250.5C 242.861,248.194 240.861,246.194 238.5,244.5C 250.833,231.833 263.167,219.167 275.5,206.5 Z M 357.5,206.5 C 357.5,210.5 357.5,214.5 357.5,218.5C 356.833,218.833 356.167,219.167 355.5,219.5C 355.115,215.956 354.115,212.623 352.5,209.5C 353.922,208.075 355.589,207.075 357.5,206.5 Z M 215.5,207.5 C 218.485,208.326 221.151,209.659 223.5,211.5C 218.167,217.5 212.5,223.167 206.5,228.5C 203.883,227.214 201.55,225.547 199.5,223.5C 204.5,217.833 209.833,212.5 215.5,207.5 Z M 344.5,211.5 C 339.833,215.5 335.5,219.833 331.5,224.5C 329.762,222.881 329.262,220.881 330,218.5C 333.69,215.309 337.523,212.309 341.5,209.5C 342.739,209.942 343.739,210.609 344.5,211.5 Z M 171.5,211.5 C 174.117,212.786 176.45,214.453 178.5,216.5C 175.167,220.5 171.5,224.167 167.5,227.5C 164.092,226.422 162.092,224.089 161.5,220.5C 164.833,217.5 168.167,214.5 171.5,211.5 Z M 228.5,214.5 C 229.222,214.918 229.722,215.584 230,216.5C 230.498,219.482 230.665,222.482 230.5,225.5C 226.167,229.5 221.833,233.5 217.5,237.5C 214.991,236.079 212.657,234.412 210.5,232.5C 216.167,226.167 222.167,220.167 228.5,214.5 Z M 347.5,215.5 C 349.663,221.03 347.996,225.197 342.5,228C 339.961,228.796 337.628,228.629 335.5,227.5C 339.167,223.167 343.167,219.167 347.5,215.5 Z M 146.5,216.5 C 146.5,220.833 146.5,225.167 146.5,229.5C 141.833,233.5 137.5,237.833 133.5,242.5C 131.206,239.63 129.872,236.297 129.5,232.5C 135.167,227.167 140.833,221.833 146.5,216.5 Z M 381.5,220.5 C 382.744,225.035 382.744,229.702 381.5,234.5C 376.833,238.5 372.5,242.833 368.5,247.5C 366.167,247.5 363.833,247.5 361.5,247.5C 362.01,244.461 362.677,241.461 363.5,238.5C 369.833,232.833 375.833,226.833 381.5,220.5 Z M 189.5,225.5 C 180.5,234.833 171.5,244.167 162.5,253.5C 159.757,251.761 157.757,249.427 156.5,246.5C 160.167,242.5 163.833,238.5 167.5,234.5C 177.334,236.202 183.834,232.202 187,222.5C 188.045,223.373 188.878,224.373 189.5,225.5 Z M 326.5,229.5 C 322.5,233.167 318.5,236.833 314.5,240.5C 311.327,239.83 308.327,238.664 305.5,237C 311.333,232.5 317.167,228 323,223.5C 323.926,225.692 325.093,227.692 326.5,229.5 Z M 357.5,225.5 C 357.774,230.263 357.441,234.93 356.5,239.5C 350.833,244.833 345.167,250.167 339.5,255.5C 336.953,254.066 334.619,252.4 332.5,250.5C 340.5,241.833 348.833,233.5 357.5,225.5 Z M 156.5,226.5 C 158.5,228.833 160.5,231.167 162.5,233.5C 159.833,235.833 157.167,238.167 154.5,240.5C 153.64,236.566 153.307,232.566 153.5,228.5C 154.5,227.833 155.5,227.167 156.5,226.5 Z M 194.5,228.5 C 196.858,230.529 199.192,232.529 201.5,234.5C 198.833,236.5 196.5,238.833 194.5,241.5C 185.524,245.653 177.191,250.82 169.5,257C 168.423,257.47 167.423,257.303 166.5,256.5C 175.5,246.833 184.833,237.5 194.5,228.5 Z M 274.5,228.5 C 274.35,232.195 275.35,235.528 277.5,238.5C 269.833,245.833 262.167,253.167 254.5,260.5C 252.167,258.833 250.167,256.833 248.5,254.5C 256.833,245.5 265.5,236.833 274.5,228.5 Z M 329.5,232.5 C 332.623,234.115 335.956,235.115 339.5,235.5C 335.833,239.833 331.833,243.833 327.5,247.5C 324.833,246.167 322.167,244.833 319.5,243.5C 322.833,239.833 326.167,236.167 329.5,232.5 Z M 147.5,235.5 C 147.594,239.136 148.261,242.636 149.5,246C 149.167,246.333 148.833,246.667 148.5,247C 143.98,247.814 139.646,247.647 135.5,246.5C 139.5,242.833 143.5,239.167 147.5,235.5 Z M 225.5,237.5 C 225.205,239.423 224.372,241.09 223,242.5C 222.283,241.956 221.783,241.289 221.5,240.5C 222.833,239.5 224.167,238.5 225.5,237.5 Z M 212.5,242.5 C 203.833,251.5 195.167,260.5 186.5,269.5C 183.833,267.833 181.167,266.167 178.5,264.5C 182.5,260.167 186.5,255.833 190.5,251.5C 197.341,247.33 204.675,244.33 212.5,242.5 Z M 299.5,242.5 C 303.127,243.321 306.46,244.654 309.5,246.5C 294.167,261.167 279.167,276.167 264.5,291.5C 259.881,292.314 255.214,292.647 250.5,292.5C 251.167,291.5 251.833,290.5 252.5,289.5C 254.527,289.662 256.527,289.495 258.5,289C 268.333,279.167 278.167,269.333 288,259.5C 288.495,257.527 288.662,255.527 288.5,253.5C 292.5,250.167 296.167,246.5 299.5,242.5 Z M 216.5,245.5 C 219.73,247.377 221.73,250.044 222.5,253.5C 214.78,261.224 206.78,268.557 198.5,275.5C 196.287,274.227 193.954,273.227 191.5,272.5C 199.444,263.22 207.777,254.22 216.5,245.5 Z M 282.5,253.5 C 274.5,261.167 266.5,268.833 258.5,276.5C 258.335,273.482 258.502,270.482 259,267.5C 266.333,260.167 273.667,252.833 281,245.5C 282.375,247.937 282.875,250.603 282.5,253.5 Z M 384.5,251.5 C 382.833,252.833 381.167,254.167 379.5,255.5C 379.88,252.255 381.047,249.255 383,246.5C 384.009,248.025 384.509,249.692 384.5,251.5 Z M 313.5,248.5 C 316.622,249.561 319.622,250.895 322.5,252.5C 312.167,263.167 301.833,273.833 291.5,284.5C 285.63,286.567 279.63,288.233 273.5,289.5C 286.833,275.833 300.167,262.167 313.5,248.5 Z M 233.5,249.5 C 235.833,251.167 237.833,253.167 239.5,255.5C 237.833,257.5 236.167,259.5 234.5,261.5C 231.313,259.656 229.313,256.989 228.5,253.5C 230.167,252.167 231.833,250.833 233.5,249.5 Z M 125.5,269.5 C 126.127,264.859 126.46,260.193 126.5,255.5C 127.794,254.71 128.961,253.71 130,252.5C 130.667,256.833 130.667,261.167 130,265.5C 128.629,267.041 127.129,268.375 125.5,269.5 Z M 141.5,253.5 C 140.5,255.167 139.167,256.5 137.5,257.5C 137.5,256.167 137.5,254.833 137.5,253.5C 138.833,253.5 140.167,253.5 141.5,253.5 Z M 148.5,253.5 C 149.833,253.5 151.167,253.5 152.5,253.5C 152.5,256.833 152.5,260.167 152.5,263.5C 147.5,268.167 142.5,272.833 137.5,277.5C 137.5,273.167 137.5,268.833 137.5,264.5C 141.5,261.167 145.167,257.5 148.5,253.5 Z M 361.5,253.5 C 360.833,254.833 359.833,255.833 358.5,256.5C 358.5,255.5 358.5,254.5 358.5,253.5C 359.5,253.5 360.5,253.5 361.5,253.5 Z M 368.5,253.5 C 370.167,253.5 371.833,253.5 373.5,253.5C 373.5,256.5 373.5,259.5 373.5,262.5C 368.5,267.167 363.5,271.833 358.5,276.5C 358.5,272.167 358.5,267.833 358.5,263.5C 362.167,260.5 365.5,257.167 368.5,253.5 Z M 326.5,255.5 C 329.63,256.572 332.296,258.406 334.5,261C 325.435,269.203 315.102,275.37 303.5,279.5C 311.167,271.5 318.833,263.5 326.5,255.5 Z M 384.5,258.5 C 384.646,262.519 384.979,266.519 385.5,270.5C 383.5,272.167 381.5,273.833 379.5,275.5C 379.5,271.167 379.5,266.833 379.5,262.5C 381.167,261.167 382.833,259.833 384.5,258.5 Z M 222.5,259.5 C 225.167,261.5 227.5,263.833 229.5,266.5C 223.833,271.5 218.5,276.833 213.5,282.5C 210.618,280.892 207.618,279.559 204.5,278.5C 210.5,272.167 216.5,265.833 222.5,259.5 Z M 243.5,259.5 C 245.833,261.167 247.833,263.167 249.5,265.5C 248.089,267.914 246.089,269.581 243.5,270.5C 241.833,268.5 240.167,266.5 238.5,264.5C 239.833,262.5 241.5,260.833 243.5,259.5 Z M 351.5,264.5 C 345.833,269.833 340.167,275.167 334.5,280.5C 334.18,277.102 334.513,273.768 335.5,270.5C 340.672,267.415 345.672,264.081 350.5,260.5C 351.429,261.689 351.762,263.022 351.5,264.5 Z M 168.5,266.5 C 165.833,269.833 162.833,272.833 159.5,275.5C 159.334,271.154 159.501,266.821 160,262.5C 160.414,262.043 160.914,261.709 161.5,261.5C 164.077,262.943 166.41,264.61 168.5,266.5 Z M 172.5,269.5 C 173.583,269.539 174.583,269.873 175.5,270.5C 176.484,273.428 176.817,276.428 176.5,279.5C 171.443,284.562 166.11,289.228 160.5,293.5C 159.656,289.901 159.323,286.234 159.5,282.5C 164.167,278.5 168.5,274.167 172.5,269.5 Z M 232.5,269.5 C 235.167,271.5 237.5,273.833 239.5,276.5C 235.5,279.833 231.833,283.5 228.5,287.5C 224.867,286.738 221.534,285.404 218.5,283.5C 223.5,279.167 228.167,274.5 232.5,269.5 Z M 373.5,269.5 C 373.5,273.833 373.5,278.167 373.5,282.5C 371.5,283.833 369.833,285.5 368.5,287.5C 365.167,287.5 361.833,287.5 358.5,287.5C 358.5,286.167 358.5,284.833 358.5,283.5C 363.5,278.833 368.5,274.167 373.5,269.5 Z M 152.5,270.5 C 155.421,283.239 150.421,289.239 137.5,288.5C 137.5,287.167 137.5,285.833 137.5,284.5C 142.5,279.833 147.5,275.167 152.5,270.5 Z M 252.5,270.5 C 252.664,273.187 252.497,275.854 252,278.5C 250.961,277.29 249.794,276.29 248.5,275.5C 249.08,273.251 250.413,271.585 252.5,270.5 Z M 351.5,271.5 C 351.5,275.833 351.5,280.167 351.5,284.5C 343.833,291.833 336.167,299.167 328.5,306.5C 331.712,300.531 333.712,294.197 334.5,287.5C 340.167,282.167 345.833,276.833 351.5,271.5 Z M 124.5,290.5 C 124.54,285.807 124.873,281.141 125.5,276.5C 127.129,275.375 128.629,274.041 130,272.5C 130.667,276.833 130.667,281.167 130,285.5C 128.296,287.373 126.463,289.04 124.5,290.5 Z M 385.5,277.5 C 386.021,281.481 386.354,285.481 386.5,289.5C 384.167,291.5 381.833,293.5 379.5,295.5C 379.5,291.167 379.5,286.833 379.5,282.5C 381.5,280.833 383.5,279.167 385.5,277.5 Z M 242.5,279.5 C 245.167,281.5 247.5,283.833 249.5,286.5C 247.5,287.833 245.833,289.5 244.5,291.5C 241.01,290.743 237.677,289.743 234.5,288.5C 237.167,285.5 239.833,282.5 242.5,279.5 Z M 192.5,280.5 C 193.492,280.328 194.158,280.662 194.5,281.5C 193.833,281.833 193.167,282.167 192.5,282.5C 192.5,281.833 192.5,281.167 192.5,280.5 Z M 198.5,283.5 C 201.912,284.075 204.912,285.408 207.5,287.5C 205.833,289.833 203.833,291.833 201.5,293.5C 199.167,291.833 197.167,289.833 195.5,287.5C 196.5,286.167 197.5,284.833 198.5,283.5 Z M 310.5,284.5 C 305.833,289.5 301.167,294.5 296.5,299.5C 292.167,299.5 287.833,299.5 283.5,299.5C 285.833,296.833 288.167,294.167 290.5,291.5C 297.178,289.163 303.845,286.83 310.5,284.5 Z M 176.5,286.5 C 176.242,290.372 176.909,294.039 178.5,297.5C 174.5,300.833 170.833,304.5 167.5,308.5C 165.597,305.47 164.263,302.137 163.5,298.5C 167.833,294.5 172.167,290.5 176.5,286.5 Z M 213.5,289.5 C 216.579,290.304 219.579,291.304 222.5,292.5C 220.5,294.833 218.5,297.167 216.5,299.5C 213.15,299.665 209.817,299.498 206.5,299C 205.944,298.617 205.611,298.117 205.5,297.5C 207.833,294.5 210.5,291.833 213.5,289.5 Z M 130.5,292.5 C 132.072,295.215 133.072,298.215 133.5,301.5C 130.5,305.167 127.167,308.5 123.5,311.5C 123.5,307.167 123.5,302.833 123.5,298.5C 125.833,296.5 128.167,294.5 130.5,292.5 Z M 148.5,293.5 C 153.294,292.627 155.627,294.627 155.5,299.5C 153.5,301.833 151.5,304.167 149.5,306.5C 147.167,306.5 144.833,306.5 142.5,306.5C 142.167,304.5 141.833,302.5 141.5,300.5C 144.167,298.5 146.5,296.167 148.5,293.5 Z M 349.5,293.5 C 347.094,299.718 345.094,306.051 343.5,312.5C 336.5,319.167 329.5,325.833 322.5,332.5C 322.5,328.167 322.5,323.833 322.5,319.5C 331.5,310.833 340.5,302.167 349.5,293.5 Z M 361.5,293.5 C 359.5,296.167 357.167,298.5 354.5,300.5C 355.455,298.254 356.122,295.921 356.5,293.5C 358.167,293.5 359.833,293.5 361.5,293.5 Z M 227.5,294.5 C 230.216,294.678 232.883,295.178 235.5,296C 232.226,299.216 228.226,300.383 223.5,299.5C 224.833,297.833 226.167,296.167 227.5,294.5 Z M 367.5,294.5 C 369.199,294.34 370.866,294.506 372.5,295C 370.47,298.589 369.137,302.422 368.5,306.5C 364.5,306.5 360.5,306.5 356.5,306.5C 360.167,302.5 363.833,298.5 367.5,294.5 Z M 279.5,295.5 C 279.167,296.5 278.5,297.167 277.5,297.5C 276.624,297.631 275.957,297.298 275.5,296.5C 276.689,295.571 278.022,295.238 279.5,295.5 Z M 386.5,296.5 C 387.272,300.452 387.605,304.452 387.5,308.5C 382.833,312.833 378.167,317.167 373.5,321.5C 373.283,316.77 373.617,312.103 374.5,307.5C 378.5,303.833 382.5,300.167 386.5,296.5 Z M 180.5,302.5 C 182.07,305.314 183.403,308.314 184.5,311.5C 178.833,316.833 173.167,322.167 167.5,327.5C 167.5,323.167 167.5,318.833 167.5,314.5C 171.833,310.5 176.167,306.5 180.5,302.5 Z M 158.5,304.5 C 158.5,305.833 157.833,306.5 156.5,306.5C 156.833,305.5 157.5,304.833 158.5,304.5 Z M 135.5,306.5 C 137.25,310.183 137.917,314.183 137.5,318.5C 134.167,321.5 130.833,324.5 127.5,327.5C 126.193,324.275 125.193,320.941 124.5,317.5C 128.5,314.167 132.167,310.5 135.5,306.5 Z M 198.5,316.5 C 197.833,317.833 196.833,318.833 195.5,319.5C 194.324,316.847 193.491,314.181 193,311.5C 195.328,312.664 197.162,314.33 198.5,316.5 Z M 315.5,320.5 C 309.833,325.833 304.167,331.167 298.5,336.5C 298.335,333.15 298.502,329.817 299,326.5C 305.312,321.689 311.478,316.689 317.5,311.5C 317.833,311.833 318.167,312.167 318.5,312.5C 316.924,314.979 315.924,317.646 315.5,320.5 Z M 160.5,315.5 C 155.167,320.5 149.833,325.5 144.5,330.5C 141.835,317.172 147.168,311.172 160.5,312.5C 160.5,313.5 160.5,314.5 160.5,315.5 Z M 361.5,313.5 C 358.167,317.5 354.5,321.167 350.5,324.5C 350.5,320.5 350.5,316.5 350.5,312.5C 354.371,312.185 358.038,312.518 361.5,313.5 Z M 186.5,316.5 C 187.222,316.918 187.722,317.584 188,318.5C 188.498,321.482 188.665,324.482 188.5,327.5C 181.5,334.167 174.5,340.833 167.5,347.5C 167.5,343.167 167.5,338.833 167.5,334.5C 173.833,328.5 180.167,322.5 186.5,316.5 Z M 366.5,316.5 C 366.5,320.833 366.5,325.167 366.5,329.5C 361.167,334.5 355.833,339.5 350.5,344.5C 350.5,340.167 350.5,335.833 350.5,331.5C 355.833,326.5 361.167,321.5 366.5,316.5 Z M 386.5,316.5 C 385.233,322.63 383.567,328.63 381.5,334.5C 378.5,337.167 375.5,339.833 372.5,342.5C 372.5,338.167 372.5,333.833 372.5,329.5C 377.167,325.167 381.833,320.833 386.5,316.5 Z M 256.5,318.5 C 254.5,320.833 252.5,323.167 250.5,325.5C 245.739,325.794 241.072,326.627 236.5,328C 234.666,332.675 236.333,334.508 241.5,333.5C 234.167,341.5 226.5,349.167 218.5,356.5C 217.728,352.548 217.395,348.548 217.5,344.5C 225.5,337.167 233.167,329.5 240.5,321.5C 245.531,320.325 250.531,318.992 255.5,317.5C 256.107,317.624 256.44,317.957 256.5,318.5 Z M 202.5,319.5 C 205.473,321.147 208.14,323.147 210.5,325.5C 205.5,330.167 200.5,334.833 195.5,339.5C 195.5,335.167 195.5,330.833 195.5,326.5C 198.167,324.5 200.5,322.167 202.5,319.5 Z M 262.5,319.5 C 266.025,320.21 269.358,321.21 272.5,322.5C 271.5,323.833 270.5,325.167 269.5,326.5C 265.709,326.341 262.042,325.675 258.5,324.5C 259.833,322.833 261.167,321.167 262.5,319.5 Z M 343.5,319.5 C 343.5,323.833 343.5,328.167 343.5,332.5C 336.5,339.167 329.5,345.833 322.5,352.5C 322.5,348.167 322.5,343.833 322.5,339.5C 329.5,332.833 336.5,326.167 343.5,319.5 Z M 160.5,322.5 C 160.5,326.833 160.5,331.167 160.5,335.5C 155.167,340.5 149.833,345.5 144.5,350.5C 144.5,346.167 144.5,341.833 144.5,337.5C 149.833,332.5 155.167,327.5 160.5,322.5 Z M 278.5,323.5 C 281.833,324.5 285.167,325.5 288.5,326.5C 283.5,331.833 278.5,337.167 273.5,342.5C 269.924,341.515 266.258,340.848 262.5,340.5C 264.5,338.167 266.5,335.833 268.5,333.5C 272.512,334.113 274.512,332.446 274.5,328.5C 275.833,326.833 277.167,325.167 278.5,323.5 Z M 230.5,324.5 C 226.5,329.167 222.167,333.5 217.5,337.5C 217.18,334.102 217.513,330.768 218.5,327.5C 222.429,326.184 226.429,325.184 230.5,324.5 Z M 137.5,325.5 C 137.505,329.534 137.838,333.534 138.5,337.5C 136.5,339.167 134.5,340.833 132.5,342.5C 131.216,339.598 130.216,336.598 129.5,333.5C 131.833,330.5 134.5,327.833 137.5,325.5 Z M 315.5,327.5 C 315.5,331.833 315.5,336.167 315.5,340.5C 309.833,345.833 304.167,351.167 298.5,356.5C 298.5,352.167 298.5,347.833 298.5,343.5C 304.167,338.167 309.833,332.833 315.5,327.5 Z M 262.5,332.5 C 260.5,334.833 258.5,337.167 256.5,339.5C 251.414,339.626 246.414,340.293 241.5,341.5C 244.5,338.167 247.5,334.833 250.5,331.5C 254.474,330.708 258.474,331.041 262.5,332.5 Z M 292.5,330.5 C 292.5,334.833 292.5,339.167 292.5,343.5C 285.5,350.167 278.5,356.833 271.5,363.5C 268.038,362.518 264.371,362.185 260.5,362.5C 270.833,351.5 281.5,340.833 292.5,330.5 Z M 211.5,331.5 C 211.5,335.833 211.5,340.167 211.5,344.5C 206.167,349.5 200.833,354.5 195.5,359.5C 195.5,355.167 195.5,350.833 195.5,346.5C 200.833,341.5 206.167,336.5 211.5,331.5 Z M 188.5,334.5 C 188.5,338.833 188.5,343.167 188.5,347.5C 181.5,354.167 174.5,360.833 167.5,367.5C 167.5,363.167 167.5,358.833 167.5,354.5C 174.5,347.833 181.5,341.167 188.5,334.5 Z M 366.5,336.5 C 366.5,340.833 366.5,345.167 366.5,349.5C 361.167,354.5 355.833,359.5 350.5,364.5C 350.5,360.167 350.5,355.833 350.5,351.5C 355.833,346.5 361.167,341.5 366.5,336.5 Z M 343.5,339.5 C 343.5,343.833 343.5,348.167 343.5,352.5C 336.5,359.167 329.5,365.833 322.5,372.5C 322.5,368.167 322.5,363.833 322.5,359.5C 329.5,352.833 336.5,346.167 343.5,339.5 Z M 160.5,342.5 C 160.5,346.833 160.5,351.167 160.5,355.5C 157.167,358.5 153.833,361.5 150.5,364.5C 148.5,364.167 146.5,363.833 144.5,363.5C 144.5,361.5 144.5,359.5 144.5,357.5C 149.833,352.5 155.167,347.5 160.5,342.5 Z M 138.5,344.5 C 139.484,355.347 138.151,356.347 134.5,347.5C 135.833,346.5 137.167,345.5 138.5,344.5 Z M 256.5,345.5 C 260.076,346.485 263.742,347.152 267.5,347.5C 262.833,352.5 258.167,357.5 253.5,362.5C 249.167,362.5 244.833,362.5 240.5,362.5C 245.833,356.833 251.167,351.167 256.5,345.5 Z M 248.5,346.5 C 239.833,355.833 230.833,364.833 221.5,373.5C 220.097,370.091 219.43,366.425 219.5,362.5C 224.833,357.5 230.167,352.5 235.5,347.5C 239.831,348.174 244.164,347.841 248.5,346.5 Z M 376.5,346.5 C 375.62,349.262 374.454,351.929 373,354.5C 372.506,352.866 372.34,351.199 372.5,349.5C 373.833,348.5 375.167,347.5 376.5,346.5 Z M 315.5,347.5 C 315.5,351.833 315.5,356.167 315.5,360.5C 308.167,367.5 300.833,374.5 293.5,381.5C 294.997,375.846 296.33,370.179 297.5,364.5C 303.5,358.833 309.5,353.167 315.5,347.5 Z M 292.5,350.5 C 291.689,355.467 291.022,360.467 290.5,365.5C 285.5,370.167 280.5,374.833 275.5,379.5C 274.454,376.272 273.788,372.939 273.5,369.5C 279.5,362.833 285.833,356.5 292.5,350.5 Z M 211.5,351.5 C 211.646,355.519 211.979,359.519 212.5,363.5C 208.167,367.5 203.833,371.5 199.5,375.5C 197.218,372.896 195.884,369.896 195.5,366.5C 200.833,361.5 206.167,356.5 211.5,351.5 Z M 188.5,354.5 C 188.5,358.833 188.5,363.167 188.5,367.5C 182.833,372.833 177.167,378.167 171.5,383.5C 167.912,381.665 166.246,378.999 166.5,375.5C 173.833,368.5 181.167,361.5 188.5,354.5 Z M 366.5,356.5 C 366.5,358.833 366.5,361.167 366.5,363.5C 363.5,364.167 360.5,364.833 357.5,365.5C 360.167,362.167 363.167,359.167 366.5,356.5 Z M 343.5,359.5 C 343.5,363.833 343.5,368.167 343.5,372.5C 337.5,377.833 331.833,383.5 326.5,389.5C 325.417,389.539 324.417,389.873 323.5,390.5C 322.511,386.893 322.177,383.226 322.5,379.5C 329.5,372.833 336.5,366.167 343.5,359.5 Z M 160.5,362.5 C 160.662,364.527 160.495,366.527 160,368.5C 158.698,367.915 157.531,367.249 156.5,366.5C 157.5,364.833 158.833,363.5 160.5,362.5 Z M 238.5,364.5 C 237.756,369.885 236.756,375.218 235.5,380.5C 232.167,383.5 228.833,386.5 225.5,389.5C 224.5,386.167 223.5,382.833 222.5,379.5C 227.833,374.5 233.167,369.5 238.5,364.5 Z M 315.5,367.5 C 308.953,380.557 299.953,391.724 288.5,401C 287.833,401.667 287.167,401.667 286.5,401C 287.977,397.88 289.311,394.714 290.5,391.5C 298.833,383.5 307.167,375.5 315.5,367.5 Z M 246.5,368.5 C 246.167,369.5 245.5,370.167 244.5,370.5C 244.5,369.167 245.167,368.5 246.5,368.5 Z M 253.5,368.5 C 258.032,368.182 262.366,368.515 266.5,369.5C 257.167,378.5 247.833,387.5 238.5,396.5C 239.681,390.776 241.015,385.109 242.5,379.5C 246.5,376.167 250.167,372.5 253.5,368.5 Z M 213.5,369.5 C 214.294,372.802 214.96,376.135 215.5,379.5C 213.5,382.167 211.167,384.5 208.5,386.5C 206.273,384.393 204.273,382.06 202.5,379.5C 206.167,376.167 209.833,372.833 213.5,369.5 Z M 188.5,374.5 C 188.666,378.846 188.499,383.179 188,387.5C 183.646,390.083 179.479,389.75 175.5,386.5C 179.833,382.5 184.167,378.5 188.5,374.5 Z M 288.5,374.5 C 287.315,379.903 285.815,385.237 284,390.5C 283.215,392.286 282.049,393.786 280.5,395C 279.4,395.432 278.733,394.932 278.5,393.5C 277.954,390.763 277.288,388.096 276.5,385.5C 280.5,381.833 284.5,378.167 288.5,374.5 Z M 267.5,375.5 C 268.546,378.728 269.212,382.061 269.5,385.5C 262.833,392.5 256.167,399.5 249.5,406.5C 246.15,406.335 242.817,406.502 239.5,407C 238.671,408.816 237.837,410.649 237,412.5C 235.193,410.26 235.026,407.927 236.5,405.5C 246.833,395.5 257.167,385.5 267.5,375.5 Z M 217.5,385.5 C 218.295,388.55 219.295,391.55 220.5,394.5C 219.652,396.283 218.319,396.783 216.5,396C 214.627,394.296 212.96,392.463 211.5,390.5C 213.5,388.833 215.5,387.167 217.5,385.5 Z M 232.5,390.5 C 232.599,393.673 231.932,396.673 230.5,399.5C 229.237,397.971 228.237,396.305 227.5,394.5C 229.167,393.167 230.833,391.833 232.5,390.5 Z M 271.5,391.5 C 272.326,395.136 272.992,398.803 273.5,402.5C 271.833,403.5 270.5,404.833 269.5,406.5C 265.167,406.5 260.833,406.5 256.5,406.5C 261.167,401.167 266.167,396.167 271.5,391.5 Z M 275.5,407.5 C 275.264,412.291 274.264,412.958 272.5,409.5C 273.5,408.833 274.5,408.167 275.5,407.5 Z M 261.5,413.5 C 256.833,418.5 252.167,423.5 247.5,428.5C 241.785,427.617 240.285,424.617 243,419.5C 247.795,413.851 253.961,411.851 261.5,413.5 Z M 267.5,415.5 C 267.723,418.784 268.39,421.951 269.5,425C 268.643,425.689 267.977,426.522 267.5,427.5C 263.217,428.492 258.884,428.826 254.5,428.5C 258.5,423.833 262.833,419.5 267.5,415.5 Z"/></g>
<g><path style="opacity:0.043" fill="#43443f" d="M 252.5,82.5 C 254.833,82.5 257.167,82.5 259.5,82.5C 254.5,87.8333 249.5,93.1667 244.5,98.5C 242.167,98.5 239.833,98.5 237.5,98.5C 242.5,93.1667 247.5,87.8333 252.5,82.5 Z"/></g>
<g><path style="opacity:0.043" fill="#434340" d="M 272.5,82.5 C 274.71,82.894 276.043,84.2273 276.5,86.5C 272.167,90.1667 268.167,94.1667 264.5,98.5C 262.167,98.5 259.833,98.5 257.5,98.5C 262.5,93.1667 267.5,87.8333 272.5,82.5 Z"/></g>
<g><path style="opacity:0.042" fill="#43433f" d="M 511.5,85.5 C 511.5,87.1667 511.5,88.8333 511.5,90.5C 470.527,132.14 429.194,173.473 387.5,214.5C 386.463,213.07 385.796,211.403 385.5,209.5C 426.632,168.868 467.632,128.035 508.5,87C 509.527,86.4867 510.527,85.9867 511.5,85.5 Z"/></g>
<g><path style="opacity:0.044" fill="#43433f" d="M 225.5,90.5 C 223.878,95.0424 221.878,99.3758 219.5,103.5C 210.833,111.5 202.5,119.833 194.5,128.5C 193.833,128.5 193.5,128.833 193.5,129.5C 192.833,129.5 192.5,129.833 192.5,130.5C 181.956,137.887 172.956,146.887 165.5,157.5C 164.833,157.5 164.5,157.833 164.5,158.5C 163.833,158.5 163.5,158.833 163.5,159.5C 160.167,162.167 157.167,165.167 154.5,168.5C 152.632,167.737 150.965,166.737 149.5,165.5C 174.833,140.5 200.167,115.5 225.5,90.5 Z"/></g>
<g><path style="opacity:0.046" fill="#444440" d="M 236.5,105.5 C 232.5,110.167 228.167,114.5 223.5,118.5C 223.452,109.989 227.786,105.656 236.5,105.5 Z"/></g>
<g><path style="opacity:0.044" fill="#43443f" d="M 249.5,105.5 C 251.833,105.5 254.167,105.5 256.5,105.5C 250.167,112.167 243.833,118.833 237.5,125.5C 233.855,127.145 231.188,129.812 229.5,133.5C 227.167,135.5 224.833,137.5 222.5,139.5C 222.5,137.167 222.5,134.833 222.5,132.5C 231.833,123.833 240.833,114.833 249.5,105.5 Z"/></g>
<g><path style="opacity:0.043" fill="#43443f" d="M 269.5,105.5 C 271.833,105.5 274.167,105.5 276.5,105.5C 270.167,112.167 263.833,118.833 257.5,125.5C 255.167,125.5 252.833,125.5 250.5,125.5C 256.833,118.833 263.167,112.167 269.5,105.5 Z"/></g>
<g><path style="opacity:0.042" fill="#43443f" d="M 511.5,105.5 C 511.5,107.167 511.5,108.833 511.5,110.5C 471.194,151.473 430.527,192.14 389.5,232.5C 389.5,230.167 389.5,227.833 389.5,225.5C 429.299,186.201 468.965,146.701 508.5,107C 509.527,106.487 510.527,105.987 511.5,105.5 Z"/></g>
<g><path style="opacity:0.043" fill="#43433f" d="M 285.5,110.5 C 287.256,111.552 287.923,113.219 287.5,115.5C 283.5,118.833 279.833,122.5 276.5,126.5C 274.621,125.659 272.621,125.325 270.5,125.5C 275.167,120.167 280.167,115.167 285.5,110.5 Z"/></g>
<g><path style="opacity:0.042" fill="#43443f" d="M 511.5,125.5 C 511.5,127.167 511.5,128.833 511.5,130.5C 471.527,171.14 431.194,211.473 390.5,251.5C 390.5,249.167 390.5,246.833 390.5,244.5C 429.965,205.535 469.299,166.368 508.5,127C 509.527,126.487 510.527,125.987 511.5,125.5 Z"/></g>
<g><path style="opacity:0.045" fill="#43433f" d="M 215.5,126.5 C 211.833,130.5 208.167,134.5 204.5,138.5C 203.833,138.5 203.5,138.833 203.5,139.5C 199.528,141.472 196.528,144.472 194.5,148.5C 192.833,149.5 191.5,150.833 190.5,152.5C 185.188,155.812 180.855,160.145 177.5,165.5C 176.833,165.5 176.5,165.833 176.5,166.5C 175.833,166.5 175.5,166.833 175.5,167.5C 172.833,169.833 170.167,172.167 167.5,174.5C 162.999,174.337 162.332,172.67 165.5,169.5C 166.167,169.5 166.5,169.167 166.5,168.5C 167.167,168.5 167.5,168.167 167.5,167.5C 179.5,156.167 191.167,144.5 202.5,132.5C 203.167,132.5 203.5,132.167 203.5,131.5C 207.148,129.06 211.148,127.393 215.5,126.5 Z"/></g>
<g><path style="opacity:0.044" fill="#43443f" d="M 287.5,128.5 C 288.461,130.265 288.795,132.265 288.5,134.5C 286.167,136.5 283.833,138.5 281.5,140.5C 281.5,138.167 281.5,135.833 281.5,133.5C 283.5,131.833 285.5,130.167 287.5,128.5 Z"/></g>
<g><path style="opacity:0.043" fill="#444440" d="M 304.5,130.5 C 306.819,130.992 308.819,131.992 310.5,133.5C 305.224,137.437 300.224,141.771 295.5,146.5C 295.065,144.297 295.065,142.297 295.5,140.5C 298.5,137.167 301.5,133.833 304.5,130.5 Z"/></g>
<g><path style="opacity:0.043" fill="#43443f" d="M 243.5,131.5 C 245.833,131.5 248.167,131.5 250.5,131.5C 245.833,136.833 240.833,141.833 235.5,146.5C 235.5,144.167 235.5,141.833 235.5,139.5C 238.5,137.167 241.167,134.5 243.5,131.5 Z"/></g>
<g><path style="opacity:0.043" fill="#43443f" d="M 263.5,131.5 C 265.833,131.5 268.167,131.5 270.5,131.5C 258.833,143.833 246.833,155.833 234.5,167.5C 234.5,165.167 234.5,162.833 234.5,160.5C 235.167,160.5 235.5,160.167 235.5,159.5C 245.167,150.5 254.5,141.167 263.5,131.5 Z"/></g>
<g><path style="opacity:0.041" fill="#43433f" d="M 77.5,138.5 C 79.4044,138.738 80.7377,139.738 81.5,141.5C 54.8399,167.993 28.0066,194.327 1,220.5C 0.143313,217.449 0.809979,214.783 3,212.5C 27.7014,187.632 52.5347,162.965 77.5,138.5 Z"/></g>
<g><path style="opacity:0.85" fill="#2e2e2e" d="M 204.5,138.5 C 209.493,138.997 210.493,141.164 207.5,145C 204.597,147.572 201.431,149.739 198,151.5C 196.358,151.022 195.191,150.022 194.5,148.5C 196.528,144.472 199.528,141.472 203.5,139.5C 204.167,139.5 204.5,139.167 204.5,138.5 Z"/></g>
<g><path style="opacity:0.043" fill="#43433f" d="M 317.5,138.5 C 319.404,138.738 320.738,139.738 321.5,141.5C 313.167,149.5 304.833,157.5 296.5,165.5C 296.5,163.5 296.5,161.5 296.5,159.5C 303.167,152.167 310.167,145.167 317.5,138.5 Z"/></g>
<g><path style="opacity:0.043" fill="#43433f" d="M 216.5,139.5 C 215.908,142.127 215.575,144.794 215.5,147.5C 203.833,158.5 192.5,169.833 181.5,181.5C 179.447,181.598 177.78,180.931 176.5,179.5C 177.167,178.5 177.833,177.5 178.5,176.5C 179.167,176.5 179.5,176.167 179.5,175.5C 180.167,175.5 180.5,175.167 180.5,174.5C 192.5,162.833 204.5,151.167 216.5,139.5 Z"/></g>
<g><path style="opacity:0.043" fill="#444440" d="M 275.5,140.5 C 275.5,142.833 275.5,145.167 275.5,147.5C 263.5,158.833 251.833,170.5 240.5,182.5C 238.596,182.262 237.262,181.262 236.5,179.5C 249.167,166.167 262.167,153.167 275.5,140.5 Z"/></g>
<g><path style="opacity:0.042" fill="#43443f" d="M 511.5,145.5 C 511.5,147.167 511.5,148.833 511.5,150.5C 471.86,190.806 431.86,230.806 391.5,270.5C 391.5,268.167 391.5,265.833 391.5,263.5C 430.632,224.868 469.632,186.035 508.5,147C 509.527,146.487 510.527,145.987 511.5,145.5 Z"/></g>
<g><path style="opacity:0.041" fill="#43433f" d="M 88.5,146.5 C 89.8717,147.512 91.205,148.512 92.5,149.5C 62.5068,180.327 32.0068,210.66 1,240.5C 0.143313,237.449 0.809979,234.783 3,232.5C 31.7015,203.965 60.2015,175.299 88.5,146.5 Z"/></g>
<g><path style="opacity:0.043" fill="#43433f" d="M 229.5,146.5 C 229.425,149.206 229.092,151.873 228.5,154.5C 226.167,156.5 223.833,158.5 221.5,160.5C 221.5,158.167 221.5,155.833 221.5,153.5C 224.167,151.167 226.833,148.833 229.5,146.5 Z"/></g>
<g><path style="opacity:0.043" fill="#43433f" d="M 288.5,147.5 C 289.461,149.265 289.795,151.265 289.5,153.5C 287.167,155.5 284.833,157.5 282.5,159.5C 282.702,157.05 282.369,154.717 281.5,152.5C 284.093,151.246 286.427,149.58 288.5,147.5 Z"/></g>
<g><path style="opacity:0.043" fill="#43433f" d="M 327.5,147.5 C 329.5,148.167 330.833,149.5 331.5,151.5C 314.5,167.833 297.833,184.5 281.5,201.5C 280.18,200.058 278.514,199.392 276.5,199.5C 276.5,199.167 276.5,198.833 276.5,198.5C 277.167,198.5 277.5,198.167 277.5,197.5C 278.167,197.5 278.5,197.167 278.5,196.5C 279.167,196.5 279.5,196.167 279.5,195.5C 283.833,193.167 287.167,189.833 289.5,185.5C 290.167,185.5 290.5,185.167 290.5,184.5C 303.167,172.5 315.5,160.167 327.5,147.5 Z"/></g>
<g><path style="opacity:0.84" fill="#2e2e2e" d="M 190.5,152.5 C 192.908,153.315 193.741,154.981 193,157.5C 187.819,162.501 183.652,168.168 180.5,174.5C 179.833,174.5 179.5,174.833 179.5,175.5C 178.833,175.5 178.5,175.833 178.5,176.5C 176.833,176.5 175.167,176.5 173.5,176.5C 173.405,173.308 174.071,170.308 175.5,167.5C 176.167,167.5 176.5,167.167 176.5,166.5C 177.167,166.5 177.5,166.167 177.5,165.5C 180.855,160.145 185.188,155.812 190.5,152.5 Z"/></g>
<g><path style="opacity:0.042" fill="#43433f" d="M 99.5,155.5 C 101.404,155.738 102.738,156.738 103.5,158.5C 69.8402,192.993 35.6735,226.993 1,260.5C 0.143313,257.449 0.809979,254.783 3,252.5C 35.3682,220.299 67.5348,187.965 99.5,155.5 Z"/></g>
<g><path style="opacity:0.042" fill="#43433f" d="M 117.5,157.5 C 119.514,157.392 121.18,158.058 122.5,159.5C 121.833,160.5 121.167,161.5 120.5,162.5C 119.128,161.488 117.795,160.488 116.5,159.5C 116.833,158.833 117.167,158.167 117.5,157.5 Z"/></g>
<g><path style="opacity:0.043" fill="#434340" d="M 337.5,158.5 C 338.974,159.436 339.974,160.77 340.5,162.5C 331.167,171.167 322.167,180.167 313.5,189.5C 312.833,189.5 312.5,189.833 312.5,190.5C 311.833,190.5 311.5,190.833 311.5,191.5C 307.291,193.771 302.958,195.771 298.5,197.5C 311.167,184.167 324.167,171.167 337.5,158.5 Z"/></g>
<g><path style="opacity:0.042" fill="#43433f" d="M 275.5,160.5 C 276.461,162.265 276.795,164.265 276.5,166.5C 270.035,172.464 263.702,178.631 257.5,185C 260.482,185.498 263.482,185.665 266.5,185.5C 259.167,186.833 251.833,186.833 244.5,185.5C 246.527,185.662 248.527,185.495 250.5,185C 258.702,176.631 267.035,168.464 275.5,160.5 Z"/></g>
<g><path style="opacity:0.043" fill="#43433f" d="M 214.5,161.5 C 214.5,163.833 214.5,166.167 214.5,168.5C 207.5,174.833 200.833,181.5 194.5,188.5C 192.326,188.25 190.659,187.25 189.5,185.5C 197.833,177.5 206.167,169.5 214.5,161.5 Z"/></g>
<g><path style="opacity:0.042" fill="#43433f" d="M 111.5,164.5 C 113.404,164.738 114.738,165.738 115.5,167.5C 77.5069,205.326 39.3402,242.993 1,280.5C 0.143313,277.449 0.809979,274.783 3,272.5C 39.0346,236.299 75.2013,200.299 111.5,164.5 Z"/></g>
<g><path style="opacity:0.045" fill="#43443f" d="M 131.5,164.5 C 133.153,164.66 134.486,165.326 135.5,166.5C 134.5,168.167 133.167,169.5 131.5,170.5C 129.596,170.262 128.262,169.262 127.5,167.5C 128.833,166.5 130.167,165.5 131.5,164.5 Z"/></g>
<g><path style="opacity:0.042" fill="#43443f" d="M 511.5,165.5 C 511.5,167.167 511.5,168.833 511.5,170.5C 472.194,210.473 432.527,250.14 392.5,289.5C 392.5,287.167 392.5,284.833 392.5,282.5C 431.299,244.201 469.965,205.701 508.5,167C 509.527,166.487 510.527,165.987 511.5,165.5 Z"/></g>
<g><path style="opacity:0.045" fill="#43433f" d="M 289.5,165.5 C 290.043,165.56 290.376,165.893 290.5,166.5C 289.093,170.312 287.426,173.978 285.5,177.5C 284.833,177.833 284.167,178.167 283.5,178.5C 282.539,176.735 282.205,174.735 282.5,172.5C 285.167,170.5 287.5,168.167 289.5,165.5 Z"/></g>
<g><path style="opacity:0.044" fill="#43433f" d="M 375.5,166.5 C 366.5,175.833 357.5,185.167 348.5,194.5C 347.833,194.5 347.5,194.833 347.5,195.5C 346.833,195.5 346.5,195.833 346.5,196.5C 345.833,196.5 345.5,196.833 345.5,197.5C 335.317,205.751 324.984,213.751 314.5,221.5C 330.167,205.5 345.833,189.5 361.5,173.5C 362.167,173.5 362.5,173.167 362.5,172.5C 366.709,170.229 371.042,168.229 375.5,166.5 Z"/></g>
<g><path style="opacity:0.043" fill="#43433f" d="M 228.5,167.5 C 228.5,169.833 228.5,172.167 228.5,174.5C 227.167,175.167 226.167,176.167 225.5,177.5C 224.069,176.22 223.402,174.553 223.5,172.5C 224.833,170.5 226.5,168.833 228.5,167.5 Z"/></g>
<g><path style="opacity:0.043" fill="#43433f" d="M 144.5,170.5 C 146.23,171.026 147.564,172.026 148.5,173.5C 146.833,175.833 144.833,177.833 142.5,179.5C 140.77,178.974 139.436,177.974 138.5,176.5C 140.833,174.833 142.833,172.833 144.5,170.5 Z"/></g>
<g><path style="opacity:0.041" fill="#43443f" d="M 345.5,170.5 C 346.267,171.172 346.934,172.005 347.5,173C 344.929,174.454 342.262,175.62 339.5,176.5C 341.167,174.167 343.167,172.167 345.5,170.5 Z"/></g>
<g><path style="opacity:0.042" fill="#444440" d="M 122.5,172.5 C 124.167,173.5 125.5,174.833 126.5,176.5C 84.8403,217.993 43.0069,259.326 1,300.5C 0.143313,297.449 0.809979,294.783 3,292.5C 43.0348,252.632 82.8681,212.632 122.5,172.5 Z"/></g>
<g><path style="opacity:0.043" fill="#43433f" d="M 390.5,171.5 C 385.5,177.167 380.167,182.5 374.5,187.5C 373.522,187.189 372.855,186.522 372.5,185.5C 378.16,180.344 384.16,175.677 390.5,171.5 Z"/></g>
<g><path style="opacity:0.043" fill="#43433f" d="M 157.5,177.5 C 159.544,178.508 161.544,179.508 163.5,180.5C 159.9,182.43 156.9,185.097 154.5,188.5C 152.596,188.262 151.262,187.262 150.5,185.5C 152.833,182.833 155.167,180.167 157.5,177.5 Z"/></g>
<g><path style="opacity:0.043" fill="#43443f" d="M 217.5,177.5 C 218.737,178.965 219.737,180.632 220.5,182.5C 215.833,186.5 211.5,190.833 207.5,195.5C 205.632,194.737 203.965,193.737 202.5,192.5C 207.833,187.833 212.833,182.833 217.5,177.5 Z"/></g>
<g><path style="opacity:0.042" fill="#43433f" d="M 133.5,181.5 C 135.23,182.026 136.564,183.026 137.5,184.5C 92.507,230.326 47.007,275.66 1,320.5C 0.143313,317.449 0.809979,314.783 3,312.5C 46.7014,268.965 90.2014,225.299 133.5,181.5 Z"/></g>
<g><path style="opacity:0.043" fill="#43433f" d="M 170.5,184.5 C 172.514,184.392 174.18,185.058 175.5,186.5C 172.167,190.167 168.833,193.833 165.5,197.5C 164.128,196.488 162.795,195.488 161.5,194.5C 164.5,191.167 167.5,187.833 170.5,184.5 Z"/></g>
<g><path style="opacity:0.042" fill="#43443f" d="M 511.5,185.5 C 511.5,187.167 511.5,188.833 511.5,190.5C 472.527,230.14 433.194,269.473 393.5,308.5C 393.5,306.167 393.5,303.833 393.5,301.5C 431.965,263.535 470.299,225.368 508.5,187C 509.527,186.487 510.527,185.987 511.5,185.5 Z"/></g>
<g><path style="opacity:0.043" fill="#43433f" d="M 334.5,187.5 C 318.167,204.167 301.833,220.833 285.5,237.5C 283.75,236.341 282.75,234.674 282.5,232.5C 295.5,220.167 308.167,207.5 320.5,194.5C 321.167,194.5 321.5,194.167 321.5,193.5C 325.74,191.212 330.073,189.212 334.5,187.5 Z"/></g>
<g><path style="opacity:0.044" fill="#43433f" d="M 369.5,193.5 C 367.167,195.5 364.833,197.5 362.5,199.5C 361.814,195.713 362.814,192.546 365.5,190C 367.841,189.832 369.174,190.999 369.5,193.5 Z"/></g>
<g><path style="opacity:0.044" fill="#43433f" d="M 144.5,190.5 C 146.833,190.833 148.167,192.167 148.5,194.5C 143.167,199.5 137.833,204.5 132.5,209.5C 133.961,204.38 136.294,199.713 139.5,195.5C 140.167,195.5 140.5,195.167 140.5,194.5C 141.167,194.5 141.5,194.167 141.5,193.5C 142.167,193.5 142.5,193.167 142.5,192.5C 143.5,192.167 144.167,191.5 144.5,190.5 Z"/></g>
<g><path style="opacity:0.043" fill="#43433f" d="M 224.5,190.5 C 226.404,190.738 227.738,191.738 228.5,193.5C 226.167,196.5 223.5,199.167 220.5,201.5C 218.62,201.771 217.287,201.104 216.5,199.5C 219.167,196.5 221.833,193.5 224.5,190.5 Z"/></g>
<g><path style="opacity:0.043" fill="#43433f" d="M 184.5,191.5 C 186.153,191.66 187.486,192.326 188.5,193.5C 184.833,197.833 180.833,201.833 176.5,205.5C 174.596,205.262 173.262,204.262 172.5,202.5C 176.5,198.833 180.5,195.167 184.5,191.5 Z"/></g>
<g><path style="opacity:0.044" fill="#434340" d="M 197.5,198.5 C 199.38,198.229 200.713,198.896 201.5,200.5C 197.167,205.167 192.833,209.833 188.5,214.5C 186.326,214.25 184.659,213.25 183.5,211.5C 188.167,207.167 192.833,202.833 197.5,198.5 Z"/></g>
<g><path style="opacity:0.042" fill="#43433f" d="M 156.5,199.5 C 158.23,200.026 159.564,201.026 160.5,202.5C 158.167,204.5 155.833,206.5 153.5,208.5C 153.833,205.833 154.167,203.167 154.5,200.5C 155.167,200.167 155.833,199.833 156.5,199.5 Z"/></g>
<g><path style="opacity:0.044" fill="#444440" d="M 356.5,199.5 C 356.298,201.95 356.631,204.283 357.5,206.5C 355.589,207.075 353.922,208.075 352.5,209.5C 351.167,208.833 350.167,207.833 349.5,206.5C 351.5,203.833 353.833,201.5 356.5,199.5 Z"/></g>
<g><path style="opacity:0.044" fill="#43443f" d="M 374.5,201.5 C 375.674,202.514 376.34,203.847 376.5,205.5C 372.833,209.833 368.833,213.833 364.5,217.5C 363.539,215.735 363.205,213.735 363.5,211.5C 367.167,208.167 370.833,204.833 374.5,201.5 Z"/></g>
<g><path style="opacity:0.043" fill="#43433f" d="M 210.5,204.5 C 212.674,204.75 214.341,205.75 215.5,207.5C 209.833,212.5 204.5,217.833 199.5,223.5C 197.77,222.974 196.436,221.974 195.5,220.5C 200.5,215.167 205.5,209.833 210.5,204.5 Z"/></g>
<g><path style="opacity:0.042" fill="#43433f" d="M 511.5,205.5 C 511.5,207.167 511.5,208.833 511.5,210.5C 471.194,251.473 430.527,292.14 389.5,332.5C 389.756,329.402 390.422,326.402 391.5,323.5C 392.167,323.5 392.5,323.167 392.5,322.5C 431.299,284.201 469.965,245.701 508.5,207C 509.527,206.487 510.527,205.987 511.5,205.5 Z"/></g>
<g><path style="opacity:0.043" fill="#43443f" d="M 248.5,206.5 C 250.833,206.5 253.167,206.5 255.5,206.5C 249.5,213.167 243.167,219.5 236.5,225.5C 236.5,223.167 236.5,220.833 236.5,218.5C 240.833,214.833 244.833,210.833 248.5,206.5 Z"/></g>
<g><path style="opacity:0.043" fill="#434340" d="M 268.5,206.5 C 270.833,206.5 273.167,206.5 275.5,206.5C 263.167,219.167 250.833,231.833 238.5,244.5C 236.738,243.738 235.738,242.404 235.5,240.5C 246.5,229.167 257.5,217.833 268.5,206.5 Z"/></g>
<g><path style="opacity:0.044" fill="#43433f" d="M 147.5,208.5 C 147.599,211.237 147.265,213.904 146.5,216.5C 140.833,221.833 135.167,227.167 129.5,232.5C 128.539,230.735 128.205,228.735 128.5,226.5C 134.833,220.5 141.167,214.5 147.5,208.5 Z"/></g>
<g><path style="opacity:0.045" fill="#43433f" d="M 294.5,207.5 C 290.167,212.5 285.5,217.167 280.5,221.5C 279.705,217.406 281.038,214.239 284.5,212C 287.816,210.398 291.149,208.898 294.5,207.5 Z"/></g>
<g><path style="opacity:0.047" fill="#43433f" d="M 171.5,211.5 C 168.167,214.5 164.833,217.5 161.5,220.5C 161.002,215.004 163.335,211.337 168.5,209.5C 170.038,209.453 171.038,210.12 171.5,211.5 Z"/></g>
<g><path style="opacity:0.042" fill="#43433f" d="M 124.5,211.5 C 123.99,214.539 123.323,217.539 122.5,220.5C 82.1736,260.66 41.6736,300.66 1,340.5C 0.333333,338.833 0.333333,337.167 1,335.5C 41.6736,293.66 82.8403,252.326 124.5,211.5 Z"/></g>
<g><path style="opacity:0.043" fill="#43433f" d="M 223.5,211.5 C 225.933,211.273 227.599,212.273 228.5,214.5C 222.167,220.167 216.167,226.167 210.5,232.5C 208.659,231.598 207.326,230.264 206.5,228.5C 212.5,223.167 218.167,217.5 223.5,211.5 Z"/></g>
<g><path style="opacity:0.044" fill="#43433f" d="M 344.5,211.5 C 346.912,211.694 347.912,213.027 347.5,215.5C 343.167,219.167 339.167,223.167 335.5,227.5C 333.027,227.912 331.694,226.912 331.5,224.5C 335.5,219.833 339.833,215.5 344.5,211.5 Z"/></g>
<g><path style="opacity:0.043" fill="#43443f" d="M 380.5,215.5 C 381.301,217.042 381.634,218.708 381.5,220.5C 375.833,226.833 369.833,232.833 363.5,238.5C 363.5,236.167 363.5,233.833 363.5,231.5C 369.167,226.167 374.833,220.833 380.5,215.5 Z"/></g>
<g><path style="opacity:0.043" fill="#43443f" d="M 178.5,216.5 C 180.753,218.45 181.086,220.784 179.5,223.5C 178.833,223.5 178.5,223.833 178.5,224.5C 177.833,224.5 177.5,224.833 177.5,225.5C 176.833,225.5 176.5,225.833 176.5,226.5C 175.833,226.5 175.5,226.833 175.5,227.5C 172.728,228.767 170.061,228.767 167.5,227.5C 171.5,224.167 175.167,220.5 178.5,216.5 Z"/></g>
<g><path style="opacity:0.043" fill="#43433f" d="M 357.5,218.5 C 357.5,220.833 357.5,223.167 357.5,225.5C 348.833,233.5 340.5,241.833 332.5,250.5C 330.326,250.25 328.659,249.25 327.5,247.5C 331.833,243.833 335.833,239.833 339.5,235.5C 348.5,233.833 353.833,228.5 355.5,219.5C 356.167,219.167 356.833,218.833 357.5,218.5 Z"/></g>
<g><path style="opacity:0.044" fill="#43433f" d="M 153.5,221.5 C 153.833,221.5 154.167,221.5 154.5,221.5C 155.537,222.93 156.204,224.597 156.5,226.5C 155.5,227.167 154.5,227.833 153.5,228.5C 152.167,226.167 152.167,223.833 153.5,221.5 Z"/></g>
<g><path style="opacity:0.043" fill="#43443f" d="M 274.5,221.5 C 274.5,223.833 274.5,226.167 274.5,228.5C 265.5,236.833 256.833,245.5 248.5,254.5C 246.833,253.5 245.5,252.167 244.5,250.5C 254.5,240.833 264.5,231.167 274.5,221.5 Z"/></g>
<g><path style="opacity:0.043" fill="#43433f" d="M 189.5,225.5 C 191.674,225.75 193.341,226.75 194.5,228.5C 184.833,237.5 175.5,246.833 166.5,256.5C 165.128,255.488 163.795,254.488 162.5,253.5C 171.5,244.167 180.5,234.833 189.5,225.5 Z"/></g>
<g><path style="opacity:0.045" fill="#43433f" d="M 230.5,225.5 C 231.071,229.906 229.738,233.572 226.5,236.5C 225.833,236.5 225.5,236.833 225.5,237.5C 224.167,238.5 222.833,239.5 221.5,240.5C 219.596,240.262 218.262,239.262 217.5,237.5C 221.833,233.5 226.167,229.5 230.5,225.5 Z"/></g>
<g><path style="opacity:0.042" fill="#43433f" d="M 511.5,225.5 C 511.5,227.167 511.5,228.833 511.5,230.5C 418.167,324.5 324.5,418.167 230.5,511.5C 228.833,511.5 227.167,511.5 225.5,511.5C 225.987,510.527 226.487,509.527 227,508.5C 272.701,462.965 318.201,417.299 363.5,371.5C 364.167,371.5 364.5,371.167 364.5,370.5C 367.574,369.644 370.408,368.31 373,366.5C 375.725,362.615 378.225,358.615 380.5,354.5C 381.167,354.5 381.5,354.167 381.5,353.5C 423.965,311.535 466.299,269.368 508.5,227C 509.527,226.487 510.527,225.987 511.5,225.5 Z"/></g>
<g><path style="opacity:0.043" fill="#43433f" d="M 146.5,229.5 C 147.461,231.265 147.795,233.265 147.5,235.5C 143.5,239.167 139.5,242.833 135.5,246.5C 134.326,245.486 133.66,244.153 133.5,242.5C 137.5,237.833 141.833,233.5 146.5,229.5 Z"/></g>
<g><path style="opacity:0.043" fill="#43433f" d="M 326.5,229.5 C 327.833,230.167 328.833,231.167 329.5,232.5C 326.167,236.167 322.833,239.833 319.5,243.5C 317.326,243.25 315.659,242.25 314.5,240.5C 318.5,236.833 322.5,233.167 326.5,229.5 Z"/></g>
<g><path style="opacity:0.043" fill="#43433f" d="M 162.5,233.5 C 164.216,233.629 165.883,233.962 167.5,234.5C 163.833,238.5 160.167,242.5 156.5,246.5C 155.262,244.786 154.595,242.786 154.5,240.5C 157.167,238.167 159.833,235.833 162.5,233.5 Z"/></g>
<g><path style="opacity:0.042" fill="#43443f" d="M 121.5,234.5 C 121.599,237.237 121.265,239.904 120.5,242.5C 80.8402,281.993 41.0069,321.326 1,360.5C 0.143313,357.449 0.809979,354.783 3,352.5C 42.368,312.965 81.868,273.632 121.5,234.5 Z"/></g>
<g><path style="opacity:0.044" fill="#43433f" d="M 201.5,234.5 C 203.196,234.685 204.529,235.519 205.5,237C 201.93,238.799 198.263,240.299 194.5,241.5C 196.5,238.833 198.833,236.5 201.5,234.5 Z"/></g>
<g><path style="opacity:0.045" fill="#43433f" d="M 381.5,234.5 C 380.038,238.757 378.038,242.757 375.5,246.5C 373.257,247.474 370.924,247.808 368.5,247.5C 372.5,242.833 376.833,238.5 381.5,234.5 Z"/></g>
<g><path style="opacity:0.045" fill="#43433f" d="M 356.5,239.5 C 355.052,249.107 349.718,254.941 340.5,257C 339.944,256.617 339.611,256.117 339.5,255.5C 345.167,250.167 350.833,244.833 356.5,239.5 Z"/></g>
<g><path style="opacity:0.043" fill="#43433f" d="M 212.5,242.5 C 213.872,243.512 215.205,244.512 216.5,245.5C 207.777,254.22 199.444,263.22 191.5,272.5C 189.668,271.752 188.001,270.752 186.5,269.5C 195.167,260.5 203.833,251.5 212.5,242.5 Z"/></g>
<g><path style="opacity:0.037" fill="#43433f" d="M 299.5,242.5 C 296.167,246.5 292.5,250.167 288.5,253.5C 288.343,252.127 288.51,250.793 289,249.5C 292.128,246.526 295.628,244.193 299.5,242.5 Z"/></g>
<g><path style="opacity:0.042" fill="#43433f" d="M 233.5,249.5 C 231.833,250.833 230.167,252.167 228.5,253.5C 228.125,250.603 228.625,247.937 230,245.5C 231.627,246.532 232.793,247.866 233.5,249.5 Z"/></g>
<g><path style="opacity:0.042" fill="#43443f" d="M 511.5,245.5 C 511.5,247.167 511.5,248.833 511.5,250.5C 424.833,337.833 337.833,424.833 250.5,511.5C 248.833,511.5 247.167,511.5 245.5,511.5C 332.604,422.895 420.271,334.729 508.5,247C 509.527,246.487 510.527,245.987 511.5,245.5 Z"/></g>
<g><path style="opacity:0.043" fill="#43433f" d="M 309.5,246.5 C 311.38,246.229 312.713,246.896 313.5,248.5C 300.167,262.167 286.833,275.833 273.5,289.5C 270.63,290.634 267.63,291.3 264.5,291.5C 279.167,276.167 294.167,261.167 309.5,246.5 Z"/></g>
<g><path style="opacity:0.044" fill="#42423f" d="M 127.5,247.5 C 129.173,248.343 130.34,249.676 131,251.5C 131.814,265.242 131.647,278.908 130.5,292.5C 128.167,294.5 125.833,296.5 123.5,298.5C 124.092,295.873 124.425,293.206 124.5,290.5C 126.463,289.04 128.296,287.373 130,285.5C 130.667,281.167 130.667,276.833 130,272.5C 128.629,274.041 127.129,275.375 125.5,276.5C 125.5,274.167 125.5,271.833 125.5,269.5C 127.129,268.375 128.629,267.041 130,265.5C 130.667,261.167 130.667,256.833 130,252.5C 128.961,253.71 127.794,254.71 126.5,255.5C 126.5,253.167 126.5,250.833 126.5,248.5C 127.167,248.5 127.5,248.167 127.5,247.5 Z"/></g>
<g><path style="opacity:0.03" fill="#42423f" d="M 277.5,238.5 C 271.094,246.411 264.094,253.911 256.5,261C 255.563,261.692 254.897,261.525 254.5,260.5C 262.167,253.167 269.833,245.833 277.5,238.5 Z"/></g>
<g><path style="opacity:0.045" fill="#43433f" d="M 190.5,251.5 C 186.5,255.833 182.5,260.167 178.5,264.5C 176.616,264.288 175.283,263.288 174.5,261.5C 179.217,257.144 184.55,253.81 190.5,251.5 Z"/></g>
<g><path style="opacity:0.043" fill="#43443f" d="M 384.5,251.5 C 384.5,253.833 384.5,256.167 384.5,258.5C 382.833,259.833 381.167,261.167 379.5,262.5C 379.5,260.167 379.5,257.833 379.5,255.5C 381.167,254.167 382.833,252.833 384.5,251.5 Z"/></g>
<g><path style="opacity:0.043" fill="#43433f" d="M 322.5,252.5 C 324.23,253.026 325.564,254.026 326.5,255.5C 318.833,263.5 311.167,271.5 303.5,279.5C 299.734,281.716 295.734,283.383 291.5,284.5C 301.833,273.833 312.167,263.167 322.5,252.5 Z"/></g>
<g><path style="opacity:0.043" fill="#43443f" d="M 141.5,253.5 C 143.833,253.5 146.167,253.5 148.5,253.5C 145.167,257.5 141.5,261.167 137.5,264.5C 137.5,262.167 137.5,259.833 137.5,257.5C 139.167,256.5 140.5,255.167 141.5,253.5 Z"/></g>
<g><path style="opacity:0.043" fill="#43433f" d="M 222.5,253.5 C 222.5,255.5 222.5,257.5 222.5,259.5C 216.5,265.833 210.5,272.167 204.5,278.5C 202.181,278.008 200.181,277.008 198.5,275.5C 206.78,268.557 214.78,261.224 222.5,253.5 Z"/></g>
<g><path style="opacity:0.035" fill="#42423e" d="M 282.5,253.5 C 282.649,254.552 282.483,255.552 282,256.5C 274.779,263.721 267.613,270.887 260.5,278C 259.184,278.528 258.517,278.028 258.5,276.5C 266.5,268.833 274.5,261.167 282.5,253.5 Z"/></g>
<g><path style="opacity:0.043" fill="#43443f" d="M 361.5,253.5 C 363.833,253.5 366.167,253.5 368.5,253.5C 365.5,257.167 362.167,260.5 358.5,263.5C 358.5,261.167 358.5,258.833 358.5,256.5C 359.833,255.833 360.833,254.833 361.5,253.5 Z"/></g>
<g><path style="opacity:0.042" fill="#43433f" d="M 120.5,255.5 C 120.167,258.167 119.833,260.833 119.5,263.5C 80.1736,302.66 40.6736,341.66 1,380.5C 0.143313,377.449 0.809979,374.783 3,372.5C 42.0346,333.299 81.2013,294.299 120.5,255.5 Z"/></g>
<g><path style="opacity:0.042" fill="#43433f" d="M 239.5,255.5 C 241.167,256.5 242.5,257.833 243.5,259.5C 241.5,260.833 239.833,262.5 238.5,264.5C 236.596,264.262 235.262,263.262 234.5,261.5C 236.167,259.5 237.833,257.5 239.5,255.5 Z"/></g>
<g><path style="opacity:0.043" fill="#43443f" d="M 373.5,262.5 C 373.5,264.833 373.5,267.167 373.5,269.5C 368.5,274.167 363.5,278.833 358.5,283.5C 358.5,281.167 358.5,278.833 358.5,276.5C 363.5,271.833 368.5,267.167 373.5,262.5 Z"/></g>
<g><path style="opacity:0.043" fill="#43443f" d="M 152.5,263.5 C 152.5,265.833 152.5,268.167 152.5,270.5C 147.5,275.167 142.5,279.833 137.5,284.5C 137.5,282.167 137.5,279.833 137.5,277.5C 142.5,272.833 147.5,268.167 152.5,263.5 Z"/></g>
<g><path style="opacity:0.043" fill="#43443f" d="M 351.5,264.5 C 351.5,266.833 351.5,269.167 351.5,271.5C 345.833,276.833 340.167,282.167 334.5,287.5C 334.5,285.167 334.5,282.833 334.5,280.5C 340.167,275.167 345.833,269.833 351.5,264.5 Z"/></g>
<g><path style="opacity:0.042" fill="#43433f" d="M 249.5,265.5 C 251.727,266.401 252.727,268.067 252.5,270.5C 250.413,271.585 249.08,273.251 248.5,275.5C 246.5,274.167 244.833,272.5 243.5,270.5C 246.089,269.581 248.089,267.914 249.5,265.5 Z"/></g>
<g><path style="opacity:0.042" fill="#43443f" d="M 511.5,265.5 C 511.5,267.167 511.5,268.833 511.5,270.5C 431.5,351.167 351.167,431.5 270.5,511.5C 268.833,511.5 267.167,511.5 265.5,511.5C 345.937,429.562 426.937,348.062 508.5,267C 509.527,266.487 510.527,265.987 511.5,265.5 Z"/></g>
<g><path style="opacity:0.043" fill="#43433f" d="M 168.5,266.5 C 170.404,266.738 171.738,267.738 172.5,269.5C 168.5,274.167 164.167,278.5 159.5,282.5C 159.5,280.167 159.5,277.833 159.5,275.5C 162.833,272.833 165.833,269.833 168.5,266.5 Z"/></g>
<g><path style="opacity:0.043" fill="#43433f" d="M 229.5,266.5 C 230.833,267.167 231.833,268.167 232.5,269.5C 228.167,274.5 223.5,279.167 218.5,283.5C 216.708,283.634 215.042,283.301 213.5,282.5C 218.5,276.833 223.833,271.5 229.5,266.5 Z"/></g>
<g><path style="opacity:0.043" fill="#43443f" d="M 385.5,270.5 C 385.5,272.833 385.5,275.167 385.5,277.5C 383.5,279.167 381.5,280.833 379.5,282.5C 379.5,280.167 379.5,277.833 379.5,275.5C 381.5,273.833 383.5,272.167 385.5,270.5 Z"/></g>
<g><path style="opacity:0.044" fill="#43433f" d="M 239.5,276.5 C 241.19,276.856 242.19,277.856 242.5,279.5C 239.833,282.5 237.167,285.5 234.5,288.5C 232.379,288.675 230.379,288.341 228.5,287.5C 231.833,283.5 235.5,279.833 239.5,276.5 Z"/></g>
<g><path style="opacity:0.042" fill="#43443f" d="M 118.5,277.5 C 118.5,279.833 118.5,282.167 118.5,284.5C 79.5069,323.326 40.3402,361.993 1,400.5C 0.143313,397.449 0.809979,394.783 3,392.5C 41.368,353.965 79.868,315.632 118.5,277.5 Z"/></g>
<g><path style="opacity:0.043" fill="#43433f" d="M 176.5,279.5 C 176.5,281.833 176.5,284.167 176.5,286.5C 172.167,290.5 167.833,294.5 163.5,298.5C 162.263,297.035 161.263,295.368 160.5,293.5C 166.11,289.228 171.443,284.562 176.5,279.5 Z"/></g>
<g><path style="opacity:0.044" fill="#43433f" d="M 318.5,284.5 C 317.833,284.5 317.5,284.833 317.5,285.5C 316.833,285.5 316.5,285.833 316.5,286.5C 315.833,286.5 315.5,286.833 315.5,287.5C 314.833,287.5 314.5,287.833 314.5,288.5C 313.833,288.5 313.5,288.833 313.5,289.5C 312.833,289.5 312.5,289.833 312.5,290.5C 311.833,290.5 311.5,290.833 311.5,291.5C 310.833,291.5 310.5,291.833 310.5,292.5C 309.833,292.5 309.5,292.833 309.5,293.5C 308.833,293.5 308.5,293.833 308.5,294.5C 307.833,294.5 307.5,294.833 307.5,295.5C 306.833,295.5 306.5,295.833 306.5,296.5C 305.833,296.5 305.5,296.833 305.5,297.5C 304.833,297.5 304.5,297.833 304.5,298.5C 303.833,298.5 303.5,298.833 303.5,299.5C 301.167,299.5 298.833,299.5 296.5,299.5C 301.167,294.5 305.833,289.5 310.5,284.5C 311.167,284.5 311.5,284.167 311.5,283.5C 314.052,282.307 316.552,280.973 319,279.5C 318.981,281.107 318.815,282.774 318.5,284.5 Z"/></g>
<g><path style="opacity:0.045" fill="#43443f" d="M 194.5,281.5 C 196.153,281.66 197.486,282.326 198.5,283.5C 197.5,284.833 196.5,286.167 195.5,287.5C 193.273,286.599 192.273,284.933 192.5,282.5C 193.167,282.167 193.833,281.833 194.5,281.5 Z"/></g>
<g><path style="opacity:0.044" fill="#43433f" d="M 373.5,282.5 C 373.5,284.5 373.5,286.5 373.5,288.5C 371.708,288.634 370.042,288.301 368.5,287.5C 369.833,285.5 371.5,283.833 373.5,282.5 Z"/></g>
<g><path style="opacity:0.043" fill="#43433f" d="M 351.5,284.5 C 351.721,287.279 351.388,289.946 350.5,292.5C 349.833,292.5 349.5,292.833 349.5,293.5C 340.5,302.167 331.5,310.833 322.5,319.5C 324.229,315.042 326.229,310.709 328.5,306.5C 336.167,299.167 343.833,291.833 351.5,284.5 Z"/></g>
<g><path style="opacity:0.042" fill="#43443f" d="M 511.5,285.5 C 511.5,287.167 511.5,288.833 511.5,290.5C 438.167,364.5 364.5,438.167 290.5,511.5C 288.833,511.5 287.167,511.5 285.5,511.5C 359.271,436.229 433.604,361.396 508.5,287C 509.527,286.487 510.527,285.987 511.5,285.5 Z"/></g>
<g><path style="opacity:0.044" fill="#43433f" d="M 249.5,286.5 C 251.5,286.5 252.5,287.5 252.5,289.5C 251.833,290.5 251.167,291.5 250.5,292.5C 248.565,291.85 246.565,291.517 244.5,291.5C 245.833,289.5 247.5,287.833 249.5,286.5 Z"/></g>
<g><path style="opacity:0.043" fill="#444440" d="M 207.5,287.5 C 209.786,287.595 211.786,288.262 213.5,289.5C 210.5,291.833 207.833,294.5 205.5,297.5C 203.833,296.5 202.5,295.167 201.5,293.5C 203.833,291.833 205.833,289.833 207.5,287.5 Z"/></g>
<g><path style="opacity:0.044" fill="#43433f" d="M 386.5,289.5 C 386.5,291.833 386.5,294.167 386.5,296.5C 382.5,300.167 378.5,303.833 374.5,307.5C 375.555,303.725 376.888,300.058 378.5,296.5C 379.167,296.5 379.5,296.167 379.5,295.5C 381.833,293.5 384.167,291.5 386.5,289.5 Z"/></g>
<g><path style="opacity:0.043" fill="#43443f" d="M 222.5,292.5 C 224.403,292.796 226.07,293.463 227.5,294.5C 226.167,296.167 224.833,297.833 223.5,299.5C 221.167,299.5 218.833,299.5 216.5,299.5C 218.5,297.167 220.5,294.833 222.5,292.5 Z"/></g>
<g><path style="opacity:0.044" fill="#43433f" d="M 290.5,291.5 C 288.167,294.167 285.833,296.833 283.5,299.5C 280.99,299.946 278.99,299.28 277.5,297.5C 278.5,297.167 279.167,296.5 279.5,295.5C 280.167,295.5 280.5,295.167 280.5,294.5C 283.833,293.5 287.167,292.5 290.5,291.5 Z"/></g>
<g><path style="opacity:0.043" fill="#43433f" d="M 148.5,293.5 C 146.5,296.167 144.167,298.5 141.5,300.5C 140.069,299.22 139.402,297.553 139.5,295.5C 140.167,295.5 140.5,295.167 140.5,294.5C 143.167,294.167 145.833,293.833 148.5,293.5 Z"/></g>
<g><path style="opacity:0.044" fill="#43433f" d="M 361.5,293.5 C 363.565,293.517 365.565,293.85 367.5,294.5C 363.833,298.5 360.167,302.5 356.5,306.5C 354.801,306.66 353.134,306.494 351.5,306C 352.609,304.124 353.609,302.291 354.5,300.5C 357.167,298.5 359.5,296.167 361.5,293.5 Z"/></g>
<g><path style="opacity:0.043" fill="#43433f" d="M 178.5,297.5 C 179.537,298.93 180.204,300.597 180.5,302.5C 176.167,306.5 171.833,310.5 167.5,314.5C 167.5,312.5 167.5,310.5 167.5,308.5C 170.833,304.5 174.5,300.833 178.5,297.5 Z"/></g>
<g><path style="opacity:0.042" fill="#43443f" d="M 117.5,298.5 C 117.5,300.833 117.5,303.167 117.5,305.5C 78.8402,343.993 40.0069,382.326 1,420.5C 0.143313,417.449 0.809979,414.783 3,412.5C 41.0346,374.299 79.2013,336.299 117.5,298.5 Z"/></g>
<g><path style="opacity:0.042" fill="#43443f" d="M 155.5,299.5 C 156.737,300.965 157.737,302.632 158.5,304.5C 157.5,304.833 156.833,305.5 156.5,306.5C 154.167,306.5 151.833,306.5 149.5,306.5C 151.5,304.167 153.5,301.833 155.5,299.5 Z"/></g>
<g><path style="opacity:0.044" fill="#434340" d="M 133.5,301.5 C 134.931,302.78 135.598,304.447 135.5,306.5C 132.167,310.5 128.5,314.167 124.5,317.5C 123.659,315.621 123.325,313.621 123.5,311.5C 127.167,308.5 130.5,305.167 133.5,301.5 Z"/></g>
<g><path style="opacity:0.041" fill="#43443f" d="M 511.5,305.5 C 511.5,307.167 511.5,308.833 511.5,310.5C 444.833,377.833 377.833,444.833 310.5,511.5C 308.833,511.5 307.167,511.5 305.5,511.5C 372.604,442.896 440.271,374.729 508.5,307C 509.527,306.487 510.527,305.987 511.5,305.5 Z"/></g>
<g><path style="opacity:0.043" fill="#43433f" d="M 387.5,308.5 C 387.721,311.279 387.388,313.946 386.5,316.5C 381.833,320.833 377.167,325.167 372.5,329.5C 372.575,326.794 372.908,324.127 373.5,321.5C 378.167,317.167 382.833,312.833 387.5,308.5 Z"/></g>
<g><path style="opacity:0.043" fill="#43443f" d="M 184.5,311.5 C 185.931,312.78 186.598,314.447 186.5,316.5C 180.167,322.5 173.833,328.5 167.5,334.5C 167.5,332.167 167.5,329.833 167.5,327.5C 173.167,322.167 178.833,316.833 184.5,311.5 Z"/></g>
<g><path style="opacity:0.043" fill="#43443f" d="M 343.5,312.5 C 343.5,314.833 343.5,317.167 343.5,319.5C 336.5,326.167 329.5,332.833 322.5,339.5C 322.5,337.167 322.5,334.833 322.5,332.5C 329.5,325.833 336.5,319.167 343.5,312.5 Z"/></g>
<g><path style="opacity:0.044" fill="#43433f" d="M 366.5,316.5 C 361.167,321.5 355.833,326.5 350.5,331.5C 350.5,329.167 350.5,326.833 350.5,324.5C 354.5,321.167 358.167,317.5 361.5,313.5C 363.54,312.481 365.54,312.481 367.5,313.5C 366.873,314.417 366.539,315.417 366.5,316.5 Z"/></g>
<g><path style="opacity:0.043" fill="#43443f" d="M 160.5,315.5 C 160.5,317.833 160.5,320.167 160.5,322.5C 155.167,327.5 149.833,332.5 144.5,337.5C 144.5,335.167 144.5,332.833 144.5,330.5C 149.833,325.5 155.167,320.5 160.5,315.5 Z"/></g>
<g><path style="opacity:0.044" fill="#43443f" d="M 198.5,316.5 C 200.404,316.738 201.738,317.738 202.5,319.5C 200.5,322.167 198.167,324.5 195.5,326.5C 195.5,324.167 195.5,321.833 195.5,319.5C 196.833,318.833 197.833,317.833 198.5,316.5 Z"/></g>
<g><path style="opacity:0.042" fill="#434340" d="M 117.5,318.5 C 118.537,319.93 119.204,321.597 119.5,323.5C 80.1736,362.66 40.6736,401.66 1,440.5C 0.143313,437.449 0.809979,434.783 3,432.5C 41.0346,394.299 79.2013,356.299 117.5,318.5 Z"/></g>
<g><path style="opacity:0.043" fill="#43443f" d="M 137.5,318.5 C 137.5,320.833 137.5,323.167 137.5,325.5C 134.5,327.833 131.833,330.5 129.5,333.5C 128.262,331.786 127.595,329.786 127.5,327.5C 130.833,324.5 134.167,321.5 137.5,318.5 Z"/></g>
<g><path style="opacity:0.043" fill="#434340" d="M 256.5,318.5 C 258.565,318.517 260.565,318.85 262.5,319.5C 261.167,321.167 259.833,322.833 258.5,324.5C 255.763,324.401 253.096,324.735 250.5,325.5C 252.5,323.167 254.5,320.833 256.5,318.5 Z"/></g>
<g><path style="opacity:0.043" fill="#43443f" d="M 315.5,320.5 C 315.5,322.833 315.5,325.167 315.5,327.5C 309.833,332.833 304.167,338.167 298.5,343.5C 298.5,341.167 298.5,338.833 298.5,336.5C 304.167,331.167 309.833,325.833 315.5,320.5 Z"/></g>
<g><path style="opacity:0.043" fill="#43443f" d="M 240.5,321.5 C 233.167,329.5 225.5,337.167 217.5,344.5C 217.5,342.167 217.5,339.833 217.5,337.5C 222.167,333.5 226.5,329.167 230.5,324.5C 231.167,324.5 231.5,324.167 231.5,323.5C 234.539,322.99 237.539,322.323 240.5,321.5 Z"/></g>
<g><path style="opacity:0.042" fill="#43433f" d="M 272.5,322.5 C 274.565,322.517 276.565,322.85 278.5,323.5C 277.167,325.167 275.833,326.833 274.5,328.5C 272.694,327.976 271.028,327.309 269.5,326.5C 270.5,325.167 271.5,323.833 272.5,322.5 Z"/></g>
<g><path style="opacity:0.872" fill="#303030" d="M 258.5,324.5 C 262.042,325.675 265.709,326.341 269.5,326.5C 271.028,327.309 272.694,327.976 274.5,328.5C 274.512,332.446 272.512,334.113 268.5,333.5C 266.735,332.539 264.735,332.205 262.5,332.5C 258.474,331.041 254.474,330.708 250.5,331.5C 247.454,332.062 244.454,332.729 241.5,333.5C 236.333,334.508 234.666,332.675 236.5,328C 241.072,326.627 245.739,325.794 250.5,325.5C 253.096,324.735 255.763,324.401 258.5,324.5 Z"/></g>
<g><path style="opacity:0.043" fill="#43443f" d="M 210.5,325.5 C 211.461,327.265 211.795,329.265 211.5,331.5C 206.167,336.5 200.833,341.5 195.5,346.5C 195.5,344.167 195.5,341.833 195.5,339.5C 200.5,334.833 205.5,330.167 210.5,325.5 Z"/></g>
<g><path style="opacity:0.041" fill="#43443f" d="M 511.5,325.5 C 511.5,327.167 511.5,328.833 511.5,330.5C 451.5,391.167 391.167,451.5 330.5,511.5C 328.833,511.5 327.167,511.5 325.5,511.5C 385.937,449.562 446.937,388.062 508.5,327C 509.527,326.487 510.527,325.987 511.5,325.5 Z"/></g>
<g><path style="opacity:0.043" fill="#43433f" d="M 288.5,326.5 C 291.5,326.167 292.833,327.5 292.5,330.5C 281.5,340.833 270.833,351.5 260.5,362.5C 258.167,362.5 255.833,362.5 253.5,362.5C 258.167,357.5 262.833,352.5 267.5,347.5C 272.659,349.333 274.659,347.667 273.5,342.5C 278.5,337.167 283.5,331.833 288.5,326.5 Z"/></g>
<g><path style="opacity:0.043" fill="#43443f" d="M 188.5,327.5 C 188.5,329.833 188.5,332.167 188.5,334.5C 181.5,341.167 174.5,347.833 167.5,354.5C 167.5,352.167 167.5,349.833 167.5,347.5C 174.5,340.833 181.5,334.167 188.5,327.5 Z"/></g>
<g><path style="opacity:0.043" fill="#43443f" d="M 366.5,329.5 C 366.5,331.833 366.5,334.167 366.5,336.5C 361.167,341.5 355.833,346.5 350.5,351.5C 350.5,349.167 350.5,346.833 350.5,344.5C 355.833,339.5 361.167,334.5 366.5,329.5 Z"/></g>
<g><path style="opacity:0.044" fill="#43433f" d="M 250.5,331.5 C 247.5,334.833 244.5,338.167 241.5,341.5C 237.167,341.167 235.167,343.167 235.5,347.5C 230.167,352.5 224.833,357.5 219.5,362.5C 218.539,360.735 218.205,358.735 218.5,356.5C 226.5,349.167 234.167,341.5 241.5,333.5C 244.454,332.729 247.454,332.062 250.5,331.5 Z"/></g>
<g><path style="opacity:0.044" fill="#434340" d="M 262.5,332.5 C 264.735,332.205 266.735,332.539 268.5,333.5C 266.5,335.833 264.5,338.167 262.5,340.5C 260.565,339.85 258.565,339.517 256.5,339.5C 258.5,337.167 260.5,334.833 262.5,332.5 Z"/></g>
<g><path style="opacity:0.043" fill="#43443f" d="M 343.5,332.5 C 343.5,334.833 343.5,337.167 343.5,339.5C 336.5,346.167 329.5,352.833 322.5,359.5C 322.5,357.167 322.5,354.833 322.5,352.5C 329.5,345.833 336.5,339.167 343.5,332.5 Z"/></g>
<g><path style="opacity:0.042" fill="#43433f" d="M 122.5,333.5 C 123.038,335.117 123.371,336.784 123.5,338.5C 83.1736,379.66 42.3403,420.326 1,460.5C 0.143313,457.449 0.809979,454.783 3,452.5C 42.7013,412.632 82.5346,372.965 122.5,333.5 Z"/></g>
<g><path style="opacity:0.044" fill="#444440" d="M 381.5,334.5 C 380.445,338.275 379.112,341.942 377.5,345.5C 376.833,345.5 376.5,345.833 376.5,346.5C 375.167,347.5 373.833,348.5 372.5,349.5C 372.5,347.167 372.5,344.833 372.5,342.5C 375.5,339.833 378.5,337.167 381.5,334.5 Z"/></g>
<g><path style="opacity:0.043" fill="#43443f" d="M 160.5,335.5 C 160.5,337.833 160.5,340.167 160.5,342.5C 155.167,347.5 149.833,352.5 144.5,357.5C 144.5,355.167 144.5,352.833 144.5,350.5C 149.833,345.5 155.167,340.5 160.5,335.5 Z"/></g>
<g><path style="opacity:0.043" fill="#43433f" d="M 138.5,337.5 C 138.5,339.833 138.5,342.167 138.5,344.5C 137.167,345.5 135.833,346.5 134.5,347.5C 133.463,346.07 132.796,344.403 132.5,342.5C 134.5,340.833 136.5,339.167 138.5,337.5 Z"/></g>
<g><path style="opacity:0.895" fill="#303030" d="M 256.5,339.5 C 258.565,339.517 260.565,339.85 262.5,340.5C 266.258,340.848 269.924,341.515 273.5,342.5C 274.659,347.667 272.659,349.333 267.5,347.5C 263.742,347.152 260.076,346.485 256.5,345.5C 253.833,345.833 251.167,346.167 248.5,346.5C 244.164,347.841 239.831,348.174 235.5,347.5C 235.167,343.167 237.167,341.167 241.5,341.5C 246.414,340.293 251.414,339.626 256.5,339.5 Z"/></g>
<g><path style="opacity:0.043" fill="#43443f" d="M 315.5,340.5 C 315.5,342.833 315.5,345.167 315.5,347.5C 309.5,353.167 303.5,358.833 297.5,364.5C 297.279,361.721 297.612,359.054 298.5,356.5C 304.167,351.167 309.833,345.833 315.5,340.5 Z"/></g>
<g><path style="opacity:0.043" fill="#43433f" d="M 292.5,343.5 C 292.5,345.833 292.5,348.167 292.5,350.5C 285.833,356.5 279.5,362.833 273.5,369.5C 272.542,367.698 271.875,365.698 271.5,363.5C 278.5,356.833 285.5,350.167 292.5,343.5 Z"/></g>
<g><path style="opacity:0.043" fill="#43443f" d="M 211.5,344.5 C 211.5,346.833 211.5,349.167 211.5,351.5C 206.167,356.5 200.833,361.5 195.5,366.5C 195.5,364.167 195.5,361.833 195.5,359.5C 200.833,354.5 206.167,349.5 211.5,344.5 Z"/></g>
<g><path style="opacity:0.043" fill="#43443f" d="M 256.5,345.5 C 251.167,351.167 245.833,356.833 240.5,362.5C 239.833,362.5 239.5,362.833 239.5,363.5C 238.833,363.5 238.5,363.833 238.5,364.5C 233.167,369.5 227.833,374.5 222.5,379.5C 221.85,377.565 221.517,375.565 221.5,373.5C 230.833,364.833 239.833,355.833 248.5,346.5C 251.167,346.167 253.833,345.833 256.5,345.5 Z"/></g>
<g><path style="opacity:0.041" fill="#43443f" d="M 511.5,345.5 C 511.5,347.167 511.5,348.833 511.5,350.5C 458.167,404.5 404.5,458.167 350.5,511.5C 348.833,511.5 347.167,511.5 345.5,511.5C 399.27,456.229 453.604,401.396 508.5,347C 509.527,346.487 510.527,345.987 511.5,345.5 Z"/></g>
<g><path style="opacity:0.043" fill="#43443f" d="M 188.5,347.5 C 188.5,349.833 188.5,352.167 188.5,354.5C 181.167,361.5 173.833,368.5 166.5,375.5C 167.265,372.904 167.599,370.237 167.5,367.5C 174.5,360.833 181.5,354.167 188.5,347.5 Z"/></g>
<g><path style="opacity:0.042" fill="#43433f" d="M 127.5,348.5 C 128.931,349.78 129.598,351.447 129.5,353.5C 86.8403,395.993 44.0069,438.326 1,480.5C 0.143313,477.449 0.809979,474.783 3,472.5C 44.3679,430.965 85.8679,389.632 127.5,348.5 Z"/></g>
<g><path style="opacity:0.044" fill="#43433f" d="M 366.5,349.5 C 366.5,351.833 366.5,354.167 366.5,356.5C 363.167,359.167 360.167,362.167 357.5,365.5C 356.833,365.5 356.5,365.833 356.5,366.5C 354.559,366.869 352.725,367.536 351,368.5C 350.51,367.207 350.343,365.873 350.5,364.5C 355.833,359.5 361.167,354.5 366.5,349.5 Z"/></g>
<g><path style="opacity:0.043" fill="#43443f" d="M 343.5,352.5 C 343.5,354.833 343.5,357.167 343.5,359.5C 336.5,366.167 329.5,372.833 322.5,379.5C 322.5,377.167 322.5,374.833 322.5,372.5C 329.5,365.833 336.5,359.167 343.5,352.5 Z"/></g>
<g><path style="opacity:0.043" fill="#43443f" d="M 160.5,355.5 C 160.5,357.833 160.5,360.167 160.5,362.5C 158.833,363.5 157.5,364.833 156.5,366.5C 154.214,366.405 152.214,365.738 150.5,364.5C 153.833,361.5 157.167,358.5 160.5,355.5 Z"/></g>
<g><path style="opacity:0.043" fill="#43433f" d="M 315.5,360.5 C 315.5,362.833 315.5,365.167 315.5,367.5C 307.167,375.5 298.833,383.5 290.5,391.5C 291.5,388.167 292.5,384.833 293.5,381.5C 300.833,374.5 308.167,367.5 315.5,360.5 Z"/></g>
<g><path style="opacity:0.042" fill="#43433f" d="M 134.5,361.5 C 135.5,362.833 136.5,364.167 137.5,365.5C 92.1736,410.66 46.6736,455.66 1,500.5C 0.143313,497.449 0.809979,494.783 3,492.5C 46.7013,448.632 90.5346,404.965 134.5,361.5 Z"/></g>
<g><path style="opacity:0.043" fill="#43433f" d="M 212.5,363.5 C 213.341,365.379 213.675,367.379 213.5,369.5C 209.833,372.833 206.167,376.167 202.5,379.5C 201.026,378.564 200.026,377.23 199.5,375.5C 203.833,371.5 208.167,367.5 212.5,363.5 Z"/></g>
<g><path style="opacity:0.043" fill="#43433f" d="M 290.5,365.5 C 289.99,368.539 289.323,371.539 288.5,374.5C 284.5,378.167 280.5,381.833 276.5,385.5C 275.85,383.565 275.517,381.565 275.5,379.5C 280.5,374.833 285.5,370.167 290.5,365.5 Z"/></g>
<g><path style="opacity:0.041" fill="#43443f" d="M 511.5,365.5 C 511.5,367.167 511.5,368.833 511.5,370.5C 464.833,417.833 417.833,464.833 370.5,511.5C 368.833,511.5 367.167,511.5 365.5,511.5C 412.603,462.896 460.27,414.729 508.5,367C 509.527,366.487 510.527,365.987 511.5,365.5 Z"/></g>
<g><path style="opacity:0.043" fill="#444440" d="M 188.5,367.5 C 188.5,369.833 188.5,372.167 188.5,374.5C 184.167,378.5 179.833,382.5 175.5,386.5C 173.596,386.262 172.262,385.262 171.5,383.5C 177.167,378.167 182.833,372.833 188.5,367.5 Z"/></g>
<g><path style="opacity:0.044" fill="#43433f" d="M 246.5,368.5 C 248.833,368.5 251.167,368.5 253.5,368.5C 250.167,372.5 246.5,376.167 242.5,379.5C 242.756,376.402 243.422,373.402 244.5,370.5C 245.5,370.167 246.167,369.5 246.5,368.5 Z"/></g>
<g><path style="opacity:0.042" fill="#43433f" d="M 144.5,369.5 C 146.75,370.13 148.75,371.13 150.5,372.5C 103.806,418.86 57.1397,465.194 10.5,511.5C 8.83333,511.5 7.16667,511.5 5.5,511.5C 51.1034,464.396 97.2701,417.729 144,371.5C 144.464,370.906 144.631,370.239 144.5,369.5 Z"/></g>
<g><path style="opacity:0.043" fill="#43433f" d="M 266.5,369.5 C 267.15,371.435 267.483,373.435 267.5,375.5C 257.167,385.5 246.833,395.5 236.5,405.5C 236.756,402.402 237.422,399.402 238.5,396.5C 247.833,387.5 257.167,378.5 266.5,369.5 Z"/></g>
<g><path style="opacity:0.043" fill="#43433f" d="M 343.5,372.5 C 343.856,374.19 344.856,375.19 346.5,375.5C 346.5,375.833 346.5,376.167 346.5,376.5C 345.833,376.5 345.5,376.833 345.5,377.5C 344.833,377.5 344.5,377.833 344.5,378.5C 343.833,378.5 343.5,378.833 343.5,379.5C 342.833,379.5 342.5,379.833 342.5,380.5C 341.833,380.5 341.5,380.833 341.5,381.5C 340.833,381.5 340.5,381.833 340.5,382.5C 339.833,382.5 339.5,382.833 339.5,383.5C 338.833,383.5 338.5,383.833 338.5,384.5C 337.833,384.5 337.5,384.833 337.5,385.5C 334.302,388.011 330.636,389.345 326.5,389.5C 331.833,383.5 337.5,377.833 343.5,372.5 Z"/></g>
<g><path style="opacity:0.042" fill="#43443f" d="M 156.5,378.5 C 158.262,379.262 159.262,380.596 159.5,382.5C 116.806,425.86 73.8063,468.86 30.5,511.5C 28.8333,511.5 27.1667,511.5 25.5,511.5C 25.9867,510.527 26.4867,509.527 27,508.5C 70.3681,465.299 113.535,421.965 156.5,378.5 Z"/></g>
<g><path style="opacity:0.043" fill="#444440" d="M 215.5,379.5 C 216.458,381.302 217.125,383.302 217.5,385.5C 215.5,387.167 213.5,388.833 211.5,390.5C 209.738,389.738 208.738,388.404 208.5,386.5C 211.167,384.5 213.5,382.167 215.5,379.5 Z"/></g>
<g><path style="opacity:0.043" fill="#43433f" d="M 235.5,380.5 C 234.833,383.5 234.167,386.5 233.5,389.5C 232.833,389.5 232.5,389.833 232.5,390.5C 230.833,391.833 229.167,393.167 227.5,394.5C 226.833,392.833 226.167,391.167 225.5,389.5C 228.833,386.5 232.167,383.5 235.5,380.5 Z"/></g>
<g><path style="opacity:0.044" fill="#43433f" d="M 315.5,387.5 C 302.5,400.167 289.5,412.833 276.5,425.5C 277.441,421.675 278.774,418.009 280.5,414.5C 281.167,414.5 281.5,414.167 281.5,413.5C 282.167,413.5 282.5,413.167 282.5,412.5C 295.691,404.813 306.525,394.479 315,381.5C 315.495,383.473 315.662,385.473 315.5,387.5 Z"/></g>
<g><path style="opacity:0.043" fill="#43443f" d="M 269.5,385.5 C 270.458,387.302 271.125,389.302 271.5,391.5C 266.167,396.167 261.167,401.167 256.5,406.5C 254.167,406.5 251.833,406.5 249.5,406.5C 256.167,399.5 262.833,392.5 269.5,385.5 Z"/></g>
<g><path style="opacity:0.04" fill="#43443f" d="M 511.5,385.5 C 511.5,387.167 511.5,388.833 511.5,390.5C 471.5,431.167 431.167,471.5 390.5,511.5C 388.833,511.5 387.167,511.5 385.5,511.5C 425.937,469.563 466.937,428.063 508.5,387C 509.527,386.487 510.527,385.987 511.5,385.5 Z"/></g>
<g><path style="opacity:0.042" fill="#43433f" d="M 166.5,388.5 C 167.872,389.512 169.205,390.512 170.5,391.5C 130.806,431.86 90.8063,471.86 50.5,511.5C 48.8333,511.5 47.1667,511.5 45.5,511.5C 45.9867,510.527 46.4867,509.527 47,508.5C 87.0348,468.632 126.868,428.632 166.5,388.5 Z"/></g>
<g><path style="opacity:0.042" fill="#43443f" d="M 203.5,392.5 C 204.833,393.167 205.833,394.167 206.5,395.5C 168.14,434.527 129.473,473.194 90.5,511.5C 88.8333,511.5 87.1667,511.5 85.5,511.5C 124.138,471.195 163.471,431.528 203.5,392.5 Z"/></g>
<g><path style="opacity:0.042" fill="#43433f" d="M 179.5,395.5 C 181.565,395.517 183.565,395.85 185.5,396.5C 147.473,435.194 109.14,473.527 70.5,511.5C 68.8333,511.5 67.1667,511.5 65.5,511.5C 65.9867,510.527 66.4867,509.527 67,508.5C 104.701,470.965 142.201,433.299 179.5,395.5 Z"/></g>
<g><path style="opacity:0.042" fill="#43443f" d="M 325.5,396.5 C 287.473,435.194 249.14,473.527 210.5,511.5C 208.833,511.5 207.167,511.5 205.5,511.5C 205.987,510.527 206.487,509.527 207,508.5C 244.035,471.632 280.868,434.632 317.5,397.5C 320.206,397.425 322.873,397.092 325.5,396.5 Z"/></g>
<g><path style="opacity:0.042" fill="#444440" d="M 213.5,402.5 C 215.23,403.026 216.564,404.026 217.5,405.5C 181.806,440.861 146.14,476.194 110.5,511.5C 108.833,511.5 107.167,511.5 105.5,511.5C 140.805,474.528 176.805,438.195 213.5,402.5 Z"/></g>
<g><path style="opacity:0.042" fill="#43433f" d="M 273.5,402.5 C 274.309,404.028 274.976,405.694 275.5,407.5C 274.5,408.167 273.5,408.833 272.5,409.5C 271.833,408.167 270.833,407.167 269.5,406.5C 270.5,404.833 271.833,403.5 273.5,402.5 Z"/></g>
<g><path style="opacity:0.04" fill="#43443f" d="M 511.5,405.5 C 511.5,407.167 511.5,408.833 511.5,410.5C 478.167,444.5 444.5,478.167 410.5,511.5C 408.833,511.5 407.167,511.5 405.5,511.5C 439.27,476.23 473.603,441.396 508.5,407C 509.527,406.487 510.527,405.987 511.5,405.5 Z"/></g>
<g><path style="opacity:0.041" fill="#434340" d="M 224.5,410.5 C 226.434,411.11 228.101,412.11 229.5,413.5C 196.473,446.194 163.473,478.861 130.5,511.5C 128.833,511.5 127.167,511.5 125.5,511.5C 125.987,510.527 126.487,509.527 127,508.5C 159.701,475.965 192.201,443.299 224.5,410.5 Z"/></g>
<g><path style="opacity:0.043" fill="#43443f" d="M 261.5,413.5 C 264.082,413.025 266.082,413.692 267.5,415.5C 262.833,419.5 258.5,423.833 254.5,428.5C 252.167,428.5 249.833,428.5 247.5,428.5C 252.167,423.5 256.833,418.5 261.5,413.5 Z"/></g>
<g><path style="opacity:0.041" fill="#43433f" d="M 233.5,422.5 C 234.167,424.167 234.833,425.833 235.5,427.5C 207.14,455.527 178.806,483.527 150.5,511.5C 148.833,511.5 147.167,511.5 145.5,511.5C 174.138,481.195 203.471,451.529 233.5,422.5 Z"/></g>
<g><path style="opacity:0.039" fill="#43443f" d="M 511.5,425.5 C 511.5,427.167 511.5,428.833 511.5,430.5C 484.833,457.833 457.833,484.833 430.5,511.5C 428.833,511.5 427.167,511.5 425.5,511.5C 452.602,482.897 480.269,454.73 508.5,427C 509.527,426.487 510.527,425.987 511.5,425.5 Z"/></g>
<g><path style="opacity:0.041" fill="#43443f" d="M 240.5,434.5 C 242.833,434.5 245.167,434.5 247.5,434.5C 222.14,460.527 196.473,486.194 170.5,511.5C 168.833,511.5 167.167,511.5 165.5,511.5C 165.987,510.527 166.487,509.527 167,508.5C 191.702,483.965 216.202,459.299 240.5,434.5 Z"/></g>
<g><path style="opacity:0.041" fill="#43443f" d="M 260.5,434.5 C 262.833,434.5 265.167,434.5 267.5,434.5C 242.14,460.527 216.473,486.194 190.5,511.5C 188.833,511.5 187.167,511.5 185.5,511.5C 185.987,510.527 186.487,509.527 187,508.5C 211.702,483.965 236.202,459.299 260.5,434.5 Z"/></g>
<g><path style="opacity:0.038" fill="#43443f" d="M 511.5,445.5 C 511.5,447.167 511.5,448.833 511.5,450.5C 491.5,471.167 471.167,491.5 450.5,511.5C 448.833,511.5 447.167,511.5 445.5,511.5C 465.935,489.564 486.935,468.064 508.5,447C 509.527,446.487 510.527,445.987 511.5,445.5 Z"/></g>
<g><path style="opacity:0.035" fill="#43443f" d="M 511.5,465.5 C 511.5,467.167 511.5,468.833 511.5,470.5C 498.167,484.5 484.5,498.167 470.5,511.5C 468.833,511.5 467.167,511.5 465.5,511.5C 479.266,496.232 493.6,481.398 508.5,467C 509.527,466.487 510.527,465.987 511.5,465.5 Z"/></g>
<g><path style="opacity:0.029" fill="#43443f" d="M 511.5,485.5 C 511.5,487.167 511.5,488.833 511.5,490.5C 504.833,497.833 497.833,504.833 490.5,511.5C 488.833,511.5 487.167,511.5 485.5,511.5C 493.167,501.833 501.833,493.167 511.5,485.5 Z"/></g>
<g><path style="opacity:0.009" fill="#43443f" d="M 511.5,505.5 C 511.5,507.167 511.5,508.833 511.5,510.5C 510.833,510.5 510.5,510.833 510.5,511.5C 508.833,511.5 507.167,511.5 505.5,511.5C 506.5,508.5 508.5,506.5 511.5,505.5 Z"/></g>
</svg>
