<?xml version="1.0" standalone="no"?>
<!DOCTYPE svg PUBLIC "-//W3C//DTD SVG 20010904//EN"
 "http://www.w3.org/TR/2001/REC-SVG-20010904/DTD/svg10.dtd">
<svg version="1.0" xmlns="http://www.w3.org/2000/svg"
 width="855.000000pt" height="935.000000pt" viewBox="0 0 855.000000 935.000000"
 preserveAspectRatio="xMidYMid meet">

<g transform="translate(0.000000,935.000000) scale(0.100000,-0.100000)"
fill="#000000" stroke="none">
<path d="M70 9287 c19 -19 739 -697 1600 -1507 861 -809 1584 -1491 1607
-1515 53 -54 57 -91 13 -123 -42 -31 -131 -144 -184 -235 -52 -88 -115 -231
-171 -387 -20 -58 -65 -157 -100 -220 -99 -179 -104 -224 -40 -350 63 -126 58
-181 -29 -284 -113 -133 -174 -243 -276 -496 -103 -257 -153 -335 -311 -490
-104 -101 -107 -111 -91 -280 10 -112 24 -167 63 -260 l19 -45 49 3 c74 6 112
-21 273 -187 79 -83 157 -155 171 -160 29 -11 110 0 294 40 174 38 329 106
353 156 9 19 15 85 19 204 6 174 6 176 35 215 41 55 505 512 541 532 24 13 60
17 170 18 198 1 254 19 400 125 107 77 183 111 252 113 47 1 58 -2 75 -24 19
-23 20 -34 15 -150 -3 -69 -10 -141 -16 -160 -6 -19 -35 -64 -64 -100 -78 -94
-214 -291 -313 -454 -363 -592 -625 -1205 -774 -1811 -52 -214 -68 -255 -97
-255 -71 0 -326 305 -489 586 -104 180 -213 435 -266 621 l-22 80 -98 6 c-143
9 -171 24 -306 164 l-113 118 6 -60 c3 -33 17 -115 31 -182 174 -859 703
-1614 1449 -2068 432 -263 895 -411 1420 -455 537 -45 1135 74 1636 326 1481
742 2136 2492 1508 4026 -202 493 -553 955 -974 1283 -92 72 -285 205 -296
205 -4 0 22 -44 58 -97 130 -195 223 -422 273 -670 l23 -111 69 -84 c270 -322
459 -695 561 -1103 58 -233 71 -349 71 -615 0 -191 -5 -262 -23 -379 -102
-665 -433 -1266 -936 -1700 -95 -82 -225 -181 -239 -181 -10 0 -53 92 -73 155
-15 50 -18 93 -18 255 1 167 5 218 28 350 35 201 91 436 216 905 214 807 261
1062 261 1430 0 600 -184 1197 -549 1783 -283 455 -504 637 -936 773 -529 167
-601 203 -827 415 -148 140 -209 180 -341 226 -180 62 -277 124 -487 310 -126
111 -162 138 -217 167 -128 65 -159 -2 -143 -307 9 -165 19 -220 46 -275 8
-15 62 -79 120 -143 58 -63 109 -127 115 -141 5 -15 7 -52 4 -82 -9 -81 -14
-94 -34 -88 -10 2 -920 606 -2022 1342 -1102 736 -1988 1322 -1969 1302z"/>
</g>
</svg>
